<svg id="visual" viewBox="0 0 960 540" width="960" height="540" xmlns="http://www.w3.org/2000/svg" xmlns:xlink="http://www.w3.org/1999/xlink" version="1.1"><g stroke-width="1" stroke-linejoin="bevel"><path d="M489.7 230L459.8 216L460.3 226Z" fill="#89eeee" stroke="#89eeee"></path><path d="M481.8 154L441.2 185L459.8 216Z" fill="#6edcdc" stroke="#6edcdc"></path><path d="M459.8 216L376.8 250L460.3 226Z" fill="#9ff5f5" stroke="#9ff5f5"></path><path d="M489.7 230L481.8 154L459.8 216Z" fill="#75e1e1" stroke="#75e1e1"></path><path d="M489.7 230L525.2 133L481.8 154Z" fill="#aff6f6" stroke="#aff6f6"></path><path d="M441.2 185L376.8 250L459.8 216Z" fill="#b6f7f7" stroke="#b6f7f7"></path><path d="M532.2 329L555.2 297L489.7 230Z" fill="#97f4f4" stroke="#97f4f4"></path><path d="M485.2 76L420.3 127L481.8 154Z" fill="#b6f7f7" stroke="#b6f7f7"></path><path d="M481.8 154L420.3 127L441.2 185Z" fill="#82eaea" stroke="#82eaea"></path><path d="M441.2 185L366.8 180L376.8 250Z" fill="#b6f7f7" stroke="#b6f7f7"></path><path d="M532.2 329L489.7 230L460.8 343Z" fill="#a7f5f5" stroke="#a7f5f5"></path><path d="M584.7 158L558.2 133L525.2 133Z" fill="#a7f5f5" stroke="#a7f5f5"></path><path d="M420.3 127L366.8 180L441.2 185Z" fill="#b6f7f7" stroke="#b6f7f7"></path><path d="M366.8 180L359.8 235L376.8 250Z" fill="#89eeee" stroke="#89eeee"></path><path d="M584.7 158L525.2 133L489.7 230Z" fill="#97f4f4" stroke="#97f4f4"></path><path d="M525.2 133L485.2 76L481.8 154Z" fill="#aff6f6" stroke="#aff6f6"></path><path d="M460.8 343L489.7 230L460.3 226Z" fill="#75e1e1" stroke="#75e1e1"></path><path d="M402.8 341L460.3 226L376.8 250Z" fill="#8ff3f3" stroke="#8ff3f3"></path><path d="M402.8 341L460.8 343L460.3 226Z" fill="#89eeee" stroke="#89eeee"></path><path d="M627.2 246L584.7 158L489.7 230Z" fill="#9ff5f5" stroke="#9ff5f5"></path><path d="M420.3 127L380.8 129L366.8 180Z" fill="#9ff5f5" stroke="#9ff5f5"></path><path d="M377.3 356L402.8 341L353.3 340Z" fill="#6edcdc" stroke="#6edcdc"></path><path d="M380.8 129L344.3 161L366.8 180Z" fill="#aff6f6" stroke="#aff6f6"></path><path d="M366.8 180L323.4 219L359.8 235Z" fill="#aff6f6" stroke="#aff6f6"></path><path d="M498.8 73L485.2 76L525.2 133Z" fill="#a7f5f5" stroke="#a7f5f5"></path><path d="M420.3 127L377.8 103L380.8 129Z" fill="#82eaea" stroke="#82eaea"></path><path d="M323.4 219L334.3 250L359.8 235Z" fill="#9ff5f5" stroke="#9ff5f5"></path><path d="M359.8 235L334.3 250L376.8 250Z" fill="#89eeee" stroke="#89eeee"></path><path d="M577.7 97L525.2 133L558.2 133Z" fill="#97f4f4" stroke="#97f4f4"></path><path d="M577.7 97L498.8 73L525.2 133Z" fill="#89eeee" stroke="#89eeee"></path><path d="M487.2 0L457.8 70L485.2 76Z" fill="#9ff5f5" stroke="#9ff5f5"></path><path d="M485.2 76L457.8 70L420.3 127Z" fill="#aff6f6" stroke="#aff6f6"></path><path d="M344.3 161L323.4 219L366.8 180Z" fill="#b6f7f7" stroke="#b6f7f7"></path><path d="M425.3 51L377.8 103L420.3 127Z" fill="#9ff5f5" stroke="#9ff5f5"></path><path d="M334.4 133L324.4 156L344.3 161Z" fill="#89eeee" stroke="#89eeee"></path><path d="M668.6 280L627.2 246L555.2 297Z" fill="#a7f5f5" stroke="#a7f5f5"></path><path d="M555.2 297L627.2 246L489.7 230Z" fill="#b6f7f7" stroke="#b6f7f7"></path><path d="M515.2 408L570.2 346L532.2 329Z" fill="#aff6f6" stroke="#aff6f6"></path><path d="M532.2 329L570.2 346L555.2 297Z" fill="#7be5e5" stroke="#7be5e5"></path><path d="M627.2 246L623.6 161L584.7 158Z" fill="#82eaea" stroke="#82eaea"></path><path d="M619.2 133L577.7 97L558.2 133Z" fill="#7be5e5" stroke="#7be5e5"></path><path d="M619.2 133L558.2 133L584.7 158Z" fill="#8ff3f3" stroke="#8ff3f3"></path><path d="M334.4 133L344.3 161L380.8 129Z" fill="#9ff5f5" stroke="#9ff5f5"></path><path d="M344.3 161L324.4 156L323.4 219Z" fill="#aff6f6" stroke="#aff6f6"></path><path d="M619.2 133L578.7 91L577.7 97Z" fill="#9ff5f5" stroke="#9ff5f5"></path><path d="M577.7 97L578.7 91L498.8 73Z" fill="#89eeee" stroke="#89eeee"></path><path d="M345.8 104L334.4 133L380.8 129Z" fill="#9ff5f5" stroke="#9ff5f5"></path><path d="M623.6 161L619.2 133L584.7 158Z" fill="#97f4f4" stroke="#97f4f4"></path><path d="M353.3 340L402.8 341L376.8 250Z" fill="#75e1e1" stroke="#75e1e1"></path><path d="M402.8 341L437.2 388L460.8 343Z" fill="#8ff3f3" stroke="#8ff3f3"></path><path d="M460.8 343L515.2 408L532.2 329Z" fill="#97f4f4" stroke="#97f4f4"></path><path d="M281.4 316L353.3 340L334.3 250Z" fill="#6edcdc" stroke="#6edcdc"></path><path d="M334.3 250L353.3 340L376.8 250Z" fill="#a7f5f5" stroke="#a7f5f5"></path><path d="M377.3 356L437.2 388L402.8 341Z" fill="#b6f7f7" stroke="#b6f7f7"></path><path d="M377.8 103L345.8 104L380.8 129Z" fill="#7be5e5" stroke="#7be5e5"></path><path d="M334.4 133L267.4 142L324.4 156Z" fill="#7be5e5" stroke="#7be5e5"></path><path d="M316.8 22L345.8 104L377.8 103Z" fill="#6edcdc" stroke="#6edcdc"></path><path d="M487.2 0L425.3 51L457.8 70Z" fill="#aff6f6" stroke="#aff6f6"></path><path d="M457.8 70L425.3 51L420.3 127Z" fill="#9ff5f5" stroke="#9ff5f5"></path><path d="M487.2 0L485.2 76L498.8 73Z" fill="#82eaea" stroke="#82eaea"></path><path d="M670.2 271L663.1 228L627.2 246Z" fill="#7be5e5" stroke="#7be5e5"></path><path d="M627.2 246L663.1 228L623.6 161Z" fill="#89eeee" stroke="#89eeee"></path><path d="M623.6 161L657.6 158L619.2 133Z" fill="#b6f7f7" stroke="#b6f7f7"></path><path d="M437.2 388L515.2 408L460.8 343Z" fill="#8ff3f3" stroke="#8ff3f3"></path><path d="M663.1 228L657.6 158L623.6 161Z" fill="#7be5e5" stroke="#7be5e5"></path><path d="M619.2 133L666.6 87L578.7 91Z" fill="#82eaea" stroke="#82eaea"></path><path d="M668.6 280L555.2 297L570.2 346Z" fill="#75e1e1" stroke="#75e1e1"></path><path d="M668.6 280L670.2 271L627.2 246Z" fill="#75e1e1" stroke="#75e1e1"></path><path d="M690.2 118L619.2 133L657.6 158Z" fill="#82eaea" stroke="#82eaea"></path><path d="M660.1 368L668.6 280L570.2 346Z" fill="#b6f7f7" stroke="#b6f7f7"></path><path d="M263.9 281L281.4 316L334.3 250Z" fill="#89eeee" stroke="#89eeee"></path><path d="M291.8 422L364.8 459L377.3 356Z" fill="#97f4f4" stroke="#97f4f4"></path><path d="M371.3 463L443.8 441L437.2 388Z" fill="#82eaea" stroke="#82eaea"></path><path d="M263.9 281L334.3 250L323.4 219Z" fill="#b6f7f7" stroke="#b6f7f7"></path><path d="M520.8 0L498.8 73L578.7 91Z" fill="#89eeee" stroke="#89eeee"></path><path d="M520.8 0L487.2 0L498.8 73Z" fill="#75e1e1" stroke="#75e1e1"></path><path d="M271.9 89L334.4 133L345.8 104Z" fill="#aff6f6" stroke="#aff6f6"></path><path d="M267.4 142L323.4 219L324.4 156Z" fill="#b6f7f7" stroke="#b6f7f7"></path><path d="M215.9 174L263.9 281L323.4 219Z" fill="#6edcdc" stroke="#6edcdc"></path><path d="M316.8 22L377.8 103L425.3 51Z" fill="#a7f5f5" stroke="#a7f5f5"></path><path d="M271.9 89L267.4 142L334.4 133Z" fill="#75e1e1" stroke="#75e1e1"></path><path d="M600.6 425L620.6 390L570.2 346Z" fill="#82eaea" stroke="#82eaea"></path><path d="M364.8 459L437.2 388L377.3 356Z" fill="#8ff3f3" stroke="#8ff3f3"></path><path d="M437.2 388L443.8 441L515.2 408Z" fill="#97f4f4" stroke="#97f4f4"></path><path d="M515.2 408L600.6 425L570.2 346Z" fill="#aff6f6" stroke="#aff6f6"></path><path d="M605.7 0L520.8 0L578.7 91Z" fill="#8ff3f3" stroke="#8ff3f3"></path><path d="M620.6 390L634.7 380L570.2 346Z" fill="#a7f5f5" stroke="#a7f5f5"></path><path d="M487.2 0L428.3 0L425.3 51Z" fill="#89eeee" stroke="#89eeee"></path><path d="M428.3 0L401.8 0L425.3 51Z" fill="#a7f5f5" stroke="#a7f5f5"></path><path d="M690.2 118L657.6 158L766.1 166Z" fill="#82eaea" stroke="#82eaea"></path><path d="M690.2 118L666.6 87L619.2 133Z" fill="#6edcdc" stroke="#6edcdc"></path><path d="M650.2 392L660.1 368L634.7 380Z" fill="#82eaea" stroke="#82eaea"></path><path d="M634.7 380L660.1 368L570.2 346Z" fill="#a7f5f5" stroke="#a7f5f5"></path><path d="M668.6 280L714.6 319L670.2 271Z" fill="#6edcdc" stroke="#6edcdc"></path><path d="M744.1 233L663.1 228L670.2 271Z" fill="#9ff5f5" stroke="#9ff5f5"></path><path d="M744.1 233L657.6 158L663.1 228Z" fill="#9ff5f5" stroke="#9ff5f5"></path><path d="M690.2 118L677.2 90L666.6 87Z" fill="#6edcdc" stroke="#6edcdc"></path><path d="M666.6 87L605.7 0L578.7 91Z" fill="#b6f7f7" stroke="#b6f7f7"></path><path d="M620.6 390L650.2 392L634.7 380Z" fill="#aff6f6" stroke="#aff6f6"></path><path d="M599.7 436L600.6 425L515.2 408Z" fill="#aff6f6" stroke="#aff6f6"></path><path d="M443.8 441L488.8 461L515.2 408Z" fill="#a7f5f5" stroke="#a7f5f5"></path><path d="M316.8 22L271.9 89L345.8 104Z" fill="#a7f5f5" stroke="#a7f5f5"></path><path d="M720.6 375L681.2 352L660.1 368Z" fill="#89eeee" stroke="#89eeee"></path><path d="M660.1 368L681.2 352L668.6 280Z" fill="#9ff5f5" stroke="#9ff5f5"></path><path d="M600.6 425L650.2 392L620.6 390Z" fill="#aff6f6" stroke="#aff6f6"></path><path d="M527.7 495L599.7 436L515.2 408Z" fill="#8ff3f3" stroke="#8ff3f3"></path><path d="M600.6 425L599.7 436L650.2 392Z" fill="#97f4f4" stroke="#97f4f4"></path><path d="M401.8 0L316.8 22L425.3 51Z" fill="#82eaea" stroke="#82eaea"></path><path d="M718.6 99L678.1 65L677.2 90Z" fill="#aff6f6" stroke="#aff6f6"></path><path d="M677.2 90L678.1 65L666.6 87Z" fill="#97f4f4" stroke="#97f4f4"></path><path d="M678.1 65L605.7 0L666.6 87Z" fill="#a7f5f5" stroke="#a7f5f5"></path><path d="M734.1 349L714.6 319L681.2 352Z" fill="#75e1e1" stroke="#75e1e1"></path><path d="M681.2 352L714.6 319L668.6 280Z" fill="#89eeee" stroke="#89eeee"></path><path d="M359.3 463L364.8 459L291.8 422Z" fill="#89eeee" stroke="#89eeee"></path><path d="M492.2 540L508.7 530L488.8 461Z" fill="#89eeee" stroke="#89eeee"></path><path d="M193.4 146L215.9 174L267.4 142Z" fill="#b6f7f7" stroke="#b6f7f7"></path><path d="M267.4 142L215.9 174L323.4 219Z" fill="#aff6f6" stroke="#aff6f6"></path><path d="M364.8 459L371.3 463L437.2 388Z" fill="#9ff5f5" stroke="#9ff5f5"></path><path d="M202.4 271L221.4 303L263.9 281Z" fill="#97f4f4" stroke="#97f4f4"></path><path d="M263.9 281L221.4 303L281.4 316Z" fill="#b6f7f7" stroke="#b6f7f7"></path><path d="M291.8 422L377.3 356L353.3 340Z" fill="#7be5e5" stroke="#7be5e5"></path><path d="M750.6 280L744.1 233L670.2 271Z" fill="#89eeee" stroke="#89eeee"></path><path d="M690.2 118L718.6 99L677.2 90Z" fill="#7be5e5" stroke="#7be5e5"></path><path d="M276.9 404L353.3 340L281.4 316Z" fill="#7be5e5" stroke="#7be5e5"></path><path d="M364.8 459L359.3 463L371.3 463Z" fill="#7be5e5" stroke="#7be5e5"></path><path d="M678.1 65L626.7 -4L605.7 0Z" fill="#aff6f6" stroke="#aff6f6"></path><path d="M605.7 0L626.7 -4L520.8 0Z" fill="#a7f5f5" stroke="#a7f5f5"></path><path d="M520.8 0L626.7 -4L487.2 0Z" fill="#75e1e1" stroke="#75e1e1"></path><path d="M487.2 0L626.7 -4L428.3 0Z" fill="#8ff3f3" stroke="#8ff3f3"></path><path d="M428.3 0L0 -19L401.8 0Z" fill="#97f4f4" stroke="#97f4f4"></path><path d="M240.4 388L276.9 404L281.4 316Z" fill="#7be5e5" stroke="#7be5e5"></path><path d="M766.1 166L718.6 99L690.2 118Z" fill="#7be5e5" stroke="#7be5e5"></path><path d="M678.1 65L676.6 0L626.7 -4Z" fill="#9ff5f5" stroke="#9ff5f5"></path><path d="M276.9 404L291.8 422L353.3 340Z" fill="#75e1e1" stroke="#75e1e1"></path><path d="M424.8 540L376.8 476L371.3 540Z" fill="#b6f7f7" stroke="#b6f7f7"></path><path d="M359.3 463L376.8 476L371.3 463Z" fill="#6edcdc" stroke="#6edcdc"></path><path d="M371.3 463L376.8 476L443.8 441Z" fill="#7be5e5" stroke="#7be5e5"></path><path d="M0 -19L306.4 0L401.8 0Z" fill="#97f4f4" stroke="#97f4f4"></path><path d="M401.8 0L306.4 0L316.8 22Z" fill="#7be5e5" stroke="#7be5e5"></path><path d="M316.8 22L270.4 5L271.9 89Z" fill="#aff6f6" stroke="#aff6f6"></path><path d="M271.9 89L226.4 85L267.4 142Z" fill="#82eaea" stroke="#82eaea"></path><path d="M215.9 174L202.4 271L263.9 281Z" fill="#82eaea" stroke="#82eaea"></path><path d="M209.9 369L240.4 388L281.4 316Z" fill="#75e1e1" stroke="#75e1e1"></path><path d="M508.7 530L527.7 495L488.8 461Z" fill="#aff6f6" stroke="#aff6f6"></path><path d="M488.8 461L527.7 495L515.2 408Z" fill="#82eaea" stroke="#82eaea"></path><path d="M734.1 349L750.6 280L714.6 319Z" fill="#97f4f4" stroke="#97f4f4"></path><path d="M714.6 319L750.6 280L670.2 271Z" fill="#75e1e1" stroke="#75e1e1"></path><path d="M270.4 5L226.4 85L271.9 89Z" fill="#75e1e1" stroke="#75e1e1"></path><path d="M215.9 174L153.9 255L202.4 271Z" fill="#82eaea" stroke="#82eaea"></path><path d="M720.6 375L734.1 349L681.2 352Z" fill="#82eaea" stroke="#82eaea"></path><path d="M720.6 375L660.1 368L650.2 392Z" fill="#9ff5f5" stroke="#9ff5f5"></path><path d="M720.6 375L650.2 392L738.6 467Z" fill="#aff6f6" stroke="#aff6f6"></path><path d="M276.9 404L249.9 453L291.8 422Z" fill="#75e1e1" stroke="#75e1e1"></path><path d="M209.9 369L281.4 316L221.4 303Z" fill="#82eaea" stroke="#82eaea"></path><path d="M738.6 467L650.2 392L599.7 436Z" fill="#97f4f4" stroke="#97f4f4"></path><path d="M226.4 85L193.4 146L267.4 142Z" fill="#b6f7f7" stroke="#b6f7f7"></path><path d="M744.1 233L766.1 166L657.6 158Z" fill="#6edcdc" stroke="#6edcdc"></path><path d="M806.1 164L766.1 166L744.1 233Z" fill="#82eaea" stroke="#82eaea"></path><path d="M718.6 99L718.6 51L678.1 65Z" fill="#75e1e1" stroke="#75e1e1"></path><path d="M788.1 49L718.6 51L718.6 99Z" fill="#9ff5f5" stroke="#9ff5f5"></path><path d="M306.4 0L270.4 5L316.8 22Z" fill="#82eaea" stroke="#82eaea"></path><path d="M691.2 0L676.6 0L678.1 65Z" fill="#75e1e1" stroke="#75e1e1"></path><path d="M188.9 399L244.4 410L240.4 388Z" fill="#a7f5f5" stroke="#a7f5f5"></path><path d="M240.4 388L244.4 410L276.9 404Z" fill="#75e1e1" stroke="#75e1e1"></path><path d="M291.8 422L280.4 524L359.3 463Z" fill="#b6f7f7" stroke="#b6f7f7"></path><path d="M146.9 376L209.9 369L221.4 303Z" fill="#7be5e5" stroke="#7be5e5"></path><path d="M306.4 0L261.9 0L270.4 5Z" fill="#8ff3f3" stroke="#8ff3f3"></path><path d="M270.4 5L205.9 46L226.4 85Z" fill="#7be5e5" stroke="#7be5e5"></path><path d="M226.4 85L166.4 101L193.4 146Z" fill="#7be5e5" stroke="#7be5e5"></path><path d="M0 -19L261.9 0L306.4 0Z" fill="#b6f7f7" stroke="#b6f7f7"></path><path d="M676.6 0L691.2 0L626.7 -4Z" fill="#75e1e1" stroke="#75e1e1"></path><path d="M718.6 51L691.2 0L678.1 65Z" fill="#75e1e1" stroke="#75e1e1"></path><path d="M492.2 540L488.8 461L424.8 540Z" fill="#aff6f6" stroke="#aff6f6"></path><path d="M527.7 495L585.2 520L599.7 436Z" fill="#a7f5f5" stroke="#a7f5f5"></path><path d="M508.7 530L585.2 520L527.7 495Z" fill="#82eaea" stroke="#82eaea"></path><path d="M424.8 540L443.8 441L376.8 476Z" fill="#b6f7f7" stroke="#b6f7f7"></path><path d="M424.8 540L488.8 461L443.8 441Z" fill="#aff6f6" stroke="#aff6f6"></path><path d="M508.7 530L602.7 540L585.2 520Z" fill="#89eeee" stroke="#89eeee"></path><path d="M261.9 0L205.9 46L270.4 5Z" fill="#75e1e1" stroke="#75e1e1"></path><path d="M166.4 101L160.9 156L193.4 146Z" fill="#9ff5f5" stroke="#9ff5f5"></path><path d="M193.4 146L160.9 156L215.9 174Z" fill="#82eaea" stroke="#82eaea"></path><path d="M202.4 271L146.9 376L221.4 303Z" fill="#75e1e1" stroke="#75e1e1"></path><path d="M371.3 540L376.8 476L344.4 540Z" fill="#aff6f6" stroke="#aff6f6"></path><path d="M160.9 156L153.9 255L215.9 174Z" fill="#b6f7f7" stroke="#b6f7f7"></path><path d="M188.9 399L249.9 453L244.4 410Z" fill="#a7f5f5" stroke="#a7f5f5"></path><path d="M244.4 410L249.9 453L276.9 404Z" fill="#89eeee" stroke="#89eeee"></path><path d="M188.9 399L240.4 388L209.9 369Z" fill="#82eaea" stroke="#82eaea"></path><path d="M164.9 74L166.4 101L226.4 85Z" fill="#97f4f4" stroke="#97f4f4"></path><path d="M734.1 349L799.6 306L750.6 280Z" fill="#a7f5f5" stroke="#a7f5f5"></path><path d="M750.6 280L802.1 304L744.1 233Z" fill="#89eeee" stroke="#89eeee"></path><path d="M798.1 366L799.6 306L734.1 349Z" fill="#75e1e1" stroke="#75e1e1"></path><path d="M802.1 304L799.6 306L849.5 321Z" fill="#75e1e1" stroke="#75e1e1"></path><path d="M827.6 173L806.1 164L744.1 233Z" fill="#6edcdc" stroke="#6edcdc"></path><path d="M766.1 166L821.1 142L718.6 99Z" fill="#82eaea" stroke="#82eaea"></path><path d="M718.6 51L745.6 0L691.2 0Z" fill="#75e1e1" stroke="#75e1e1"></path><path d="M344.4 540L376.8 476L359.3 463Z" fill="#a7f5f5" stroke="#a7f5f5"></path><path d="M798.1 366L734.1 349L720.6 375Z" fill="#75e1e1" stroke="#75e1e1"></path><path d="M799.6 306L802.1 304L750.6 280Z" fill="#97f4f4" stroke="#97f4f4"></path><path d="M168.4 396L188.9 399L209.9 369Z" fill="#a7f5f5" stroke="#a7f5f5"></path><path d="M371.3 540L458.2 560L424.8 540Z" fill="#82eaea" stroke="#82eaea"></path><path d="M424.8 540L458.2 560L492.2 540Z" fill="#aff6f6" stroke="#aff6f6"></path><path d="M492.2 540L602.7 540L508.7 530Z" fill="#8ff3f3" stroke="#8ff3f3"></path><path d="M110.5 0L164.9 74L205.9 46Z" fill="#97f4f4" stroke="#97f4f4"></path><path d="M205.9 46L164.9 74L226.4 85Z" fill="#b6f7f7" stroke="#b6f7f7"></path><path d="M126.5 106L118.9 152L160.9 156Z" fill="#6edcdc" stroke="#6edcdc"></path><path d="M160.9 156L109.9 225L153.9 255Z" fill="#8ff3f3" stroke="#8ff3f3"></path><path d="M458.2 560L602.7 540L492.2 540Z" fill="#a7f5f5" stroke="#a7f5f5"></path><path d="M585.2 520L645.6 540L599.7 436Z" fill="#7be5e5" stroke="#7be5e5"></path><path d="M280.4 524L344.4 540L359.3 463Z" fill="#a7f5f5" stroke="#a7f5f5"></path><path d="M371.3 540L344.4 540L458.2 560Z" fill="#8ff3f3" stroke="#8ff3f3"></path><path d="M280.4 524L291.8 422L249.9 453Z" fill="#8ff3f3" stroke="#8ff3f3"></path><path d="M458.2 560L613.2 540L602.7 540Z" fill="#97f4f4" stroke="#97f4f4"></path><path d="M602.7 540L613.2 540L585.2 520Z" fill="#6edcdc" stroke="#6edcdc"></path><path d="M788.1 49L745.6 0L718.6 51Z" fill="#9ff5f5" stroke="#9ff5f5"></path><path d="M691.2 0L745.6 0L626.7 -4Z" fill="#6edcdc" stroke="#6edcdc"></path><path d="M775.1 444L798.1 366L720.6 375Z" fill="#82eaea" stroke="#82eaea"></path><path d="M827.6 173L821.1 142L806.1 164Z" fill="#6edcdc" stroke="#6edcdc"></path><path d="M806.1 164L821.1 142L766.1 166Z" fill="#7be5e5" stroke="#7be5e5"></path><path d="M827.6 173L744.1 233L852.5 212Z" fill="#82eaea" stroke="#82eaea"></path><path d="M146.9 376L168.4 396L209.9 369Z" fill="#82eaea" stroke="#82eaea"></path><path d="M153.9 476L220.4 528L249.9 453Z" fill="#8ff3f3" stroke="#8ff3f3"></path><path d="M852.5 212L744.1 233L802.1 304Z" fill="#97f4f4" stroke="#97f4f4"></path><path d="M821.1 142L788.1 49L718.6 99Z" fill="#89eeee" stroke="#89eeee"></path><path d="M698.6 534L738.6 467L599.7 436Z" fill="#aff6f6" stroke="#aff6f6"></path><path d="M788.1 49L762.1 0L745.6 0Z" fill="#82eaea" stroke="#82eaea"></path><path d="M745.6 0L762.1 0L626.7 -4Z" fill="#75e1e1" stroke="#75e1e1"></path><path d="M220.4 528L280.4 524L249.9 453Z" fill="#a7f5f5" stroke="#a7f5f5"></path><path d="M613.2 540L645.6 540L585.2 520Z" fill="#97f4f4" stroke="#97f4f4"></path><path d="M458.2 560L645.6 540L613.2 540Z" fill="#aff6f6" stroke="#aff6f6"></path><path d="M126.5 106L160.9 156L166.4 101Z" fill="#89eeee" stroke="#89eeee"></path><path d="M153.9 255L146.9 376L202.4 271Z" fill="#82eaea" stroke="#82eaea"></path><path d="M102.4 287L146.9 376L153.9 255Z" fill="#8ff3f3" stroke="#8ff3f3"></path><path d="M220.4 528L285.8 540L280.4 524Z" fill="#aff6f6" stroke="#aff6f6"></path><path d="M118.9 152L109.9 225L160.9 156Z" fill="#b6f7f7" stroke="#b6f7f7"></path><path d="M125.5 98L126.5 106L166.4 101Z" fill="#a7f5f5" stroke="#a7f5f5"></path><path d="M164.9 74L125.5 98L166.4 101Z" fill="#b6f7f7" stroke="#b6f7f7"></path><path d="M126.5 106L94.5 150L118.9 152Z" fill="#aff6f6" stroke="#aff6f6"></path><path d="M118.9 152L94.5 150L109.9 225Z" fill="#b6f7f7" stroke="#b6f7f7"></path><path d="M110.5 0L125.5 98L164.9 74Z" fill="#82eaea" stroke="#82eaea"></path><path d="M249.9 453L188.9 399L153.9 476Z" fill="#6edcdc" stroke="#6edcdc"></path><path d="M280.4 524L285.8 540L344.4 540Z" fill="#82eaea" stroke="#82eaea"></path><path d="M344.4 540L285.8 540L458.2 560Z" fill="#89eeee" stroke="#89eeee"></path><path d="M809.1 483L775.1 444L738.6 467Z" fill="#82eaea" stroke="#82eaea"></path><path d="M738.6 467L775.1 444L720.6 375Z" fill="#b6f7f7" stroke="#b6f7f7"></path><path d="M109.9 225L104.9 273L153.9 255Z" fill="#75e1e1" stroke="#75e1e1"></path><path d="M849.5 321L852.5 212L802.1 304Z" fill="#7be5e5" stroke="#7be5e5"></path><path d="M827.6 173L852.5 124L821.1 142Z" fill="#aff6f6" stroke="#aff6f6"></path><path d="M821.1 142L852.5 124L788.1 49Z" fill="#9ff5f5" stroke="#9ff5f5"></path><path d="M849.5 321L799.6 306L798.1 366Z" fill="#a7f5f5" stroke="#a7f5f5"></path><path d="M76.5 341L102.4 287L47.5 317Z" fill="#a7f5f5" stroke="#a7f5f5"></path><path d="M104.9 273L102.4 287L153.9 255Z" fill="#97f4f4" stroke="#97f4f4"></path><path d="M645.6 540L698.6 534L599.7 436Z" fill="#8ff3f3" stroke="#8ff3f3"></path><path d="M866.6 334L849.5 321L798.1 366Z" fill="#89eeee" stroke="#89eeee"></path><path d="M125.5 98L94.5 150L126.5 106Z" fill="#7be5e5" stroke="#7be5e5"></path><path d="M1.5 252L47.5 317L104.9 273Z" fill="#89eeee" stroke="#89eeee"></path><path d="M883.5 193L852.5 124L827.6 173Z" fill="#aff6f6" stroke="#aff6f6"></path><path d="M788.1 49L805.1 0L762.1 0Z" fill="#89eeee" stroke="#89eeee"></path><path d="M844.1 51L805.1 0L788.1 49Z" fill="#b6f7f7" stroke="#b6f7f7"></path><path d="M762.1 0L805.1 0L626.7 -4Z" fill="#8ff3f3" stroke="#8ff3f3"></path><path d="M153.9 476L188.9 399L168.4 396Z" fill="#aff6f6" stroke="#aff6f6"></path><path d="M153.9 476L168.4 396L131.9 485Z" fill="#8ff3f3" stroke="#8ff3f3"></path><path d="M76.5 341L100.4 359L102.4 287Z" fill="#9ff5f5" stroke="#9ff5f5"></path><path d="M102.4 287L100.4 359L146.9 376Z" fill="#a7f5f5" stroke="#a7f5f5"></path><path d="M852.5 124L844.1 51L788.1 49Z" fill="#97f4f4" stroke="#97f4f4"></path><path d="M900.5 399L866.6 334L798.1 366Z" fill="#97f4f4" stroke="#97f4f4"></path><path d="M849.5 321L892.1 297L852.5 212Z" fill="#7be5e5" stroke="#7be5e5"></path><path d="M852.5 212L883.5 193L827.6 173Z" fill="#82eaea" stroke="#82eaea"></path><path d="M892.1 297L883.5 193L852.5 212Z" fill="#a7f5f5" stroke="#a7f5f5"></path><path d="M928.5 113L853.1 36L844.1 51Z" fill="#8ff3f3" stroke="#8ff3f3"></path><path d="M131.9 485L168.4 396L146.9 376Z" fill="#8ff3f3" stroke="#8ff3f3"></path><path d="M47.5 317L102.4 287L104.9 273Z" fill="#75e1e1" stroke="#75e1e1"></path><path d="M80.5 475L131.9 485L146.9 376Z" fill="#82eaea" stroke="#82eaea"></path><path d="M928.5 113L844.1 51L852.5 124Z" fill="#6edcdc" stroke="#6edcdc"></path><path d="M844.1 51L853.1 36L805.1 0Z" fill="#82eaea" stroke="#82eaea"></path><path d="M866.6 334L892.1 297L849.5 321Z" fill="#6edcdc" stroke="#6edcdc"></path><path d="M768.6 537L809.1 483L738.6 467Z" fill="#6edcdc" stroke="#6edcdc"></path><path d="M775.1 444L873.5 446L798.1 366Z" fill="#97f4f4" stroke="#97f4f4"></path><path d="M960 343L960 326L892.1 297Z" fill="#89eeee" stroke="#89eeee"></path><path d="M0 -19L110.5 0L261.9 0Z" fill="#97f4f4" stroke="#97f4f4"></path><path d="M261.9 0L110.5 0L205.9 46Z" fill="#75e1e1" stroke="#75e1e1"></path><path d="M125.5 98L48.9 71L94.5 150Z" fill="#82eaea" stroke="#82eaea"></path><path d="M755.1 549L763.6 540L698.6 534Z" fill="#75e1e1" stroke="#75e1e1"></path><path d="M698.6 534L763.6 540L738.6 467Z" fill="#8ff3f3" stroke="#8ff3f3"></path><path d="M755.1 549L698.6 534L645.6 540Z" fill="#75e1e1" stroke="#75e1e1"></path><path d="M763.6 540L768.6 537L738.6 467Z" fill="#97f4f4" stroke="#97f4f4"></path><path d="M458.2 560L755.1 549L645.6 540Z" fill="#9ff5f5" stroke="#9ff5f5"></path><path d="M763.6 540L790.1 540L768.6 537Z" fill="#8ff3f3" stroke="#8ff3f3"></path><path d="M80.5 475L146.9 376L100.4 359Z" fill="#9ff5f5" stroke="#9ff5f5"></path><path d="M153.9 476L155.4 540L220.4 528Z" fill="#a7f5f5" stroke="#a7f5f5"></path><path d="M960 0L855.6 8L853.1 36Z" fill="#8ff3f3" stroke="#8ff3f3"></path><path d="M853.1 36L855.6 8L805.1 0Z" fill="#8ff3f3" stroke="#8ff3f3"></path><path d="M1.5 252L104.9 273L109.9 225Z" fill="#89eeee" stroke="#89eeee"></path><path d="M26.5 368L80.5 475L100.4 359Z" fill="#75e1e1" stroke="#75e1e1"></path><path d="M8.5 169L109.9 225L94.5 150Z" fill="#7be5e5" stroke="#7be5e5"></path><path d="M0 -19L93.4 0L110.5 0Z" fill="#89eeee" stroke="#89eeee"></path><path d="M110.5 0L93.4 0L125.5 98Z" fill="#b6f7f7" stroke="#b6f7f7"></path><path d="M0 -19L86.9 0L93.4 0Z" fill="#75e1e1" stroke="#75e1e1"></path><path d="M93.4 0L48.9 71L125.5 98Z" fill="#b6f7f7" stroke="#b6f7f7"></path><path d="M755.1 549L790.1 540L763.6 540Z" fill="#aff6f6" stroke="#aff6f6"></path><path d="M768.6 537L790.1 540L809.1 483Z" fill="#7be5e5" stroke="#7be5e5"></path><path d="M809.1 483L873.5 446L775.1 444Z" fill="#6edcdc" stroke="#6edcdc"></path><path d="M86.9 0L48.9 71L93.4 0Z" fill="#6edcdc" stroke="#6edcdc"></path><path d="M154.9 540L153.9 476L131.9 485Z" fill="#b6f7f7" stroke="#b6f7f7"></path><path d="M154.9 540L155.4 540L153.9 476Z" fill="#6edcdc" stroke="#6edcdc"></path><path d="M220.4 528L155.4 540L285.8 540Z" fill="#6edcdc" stroke="#6edcdc"></path><path d="M285.8 540L155.4 540L458.2 560Z" fill="#75e1e1" stroke="#75e1e1"></path><path d="M87.9 540L154.9 540L131.9 485Z" fill="#97f4f4" stroke="#97f4f4"></path><path d="M155.4 540L154.9 540L458.2 560Z" fill="#8ff3f3" stroke="#8ff3f3"></path><path d="M890.5 491L873.5 446L809.1 483Z" fill="#75e1e1" stroke="#75e1e1"></path><path d="M873.5 446L900.5 399L798.1 366Z" fill="#b6f7f7" stroke="#b6f7f7"></path><path d="M940.5 117L928.5 113L883.5 193Z" fill="#6edcdc" stroke="#6edcdc"></path><path d="M883.5 193L928.5 113L852.5 124Z" fill="#8ff3f3" stroke="#8ff3f3"></path><path d="M940.5 117L883.5 193L960 255Z" fill="#75e1e1" stroke="#75e1e1"></path><path d="M48.9 71L8.5 169L94.5 150Z" fill="#97f4f4" stroke="#97f4f4"></path><path d="M26.5 368L100.4 359L76.5 341Z" fill="#6edcdc" stroke="#6edcdc"></path><path d="M26.5 368L76.5 341L47.5 317Z" fill="#6edcdc" stroke="#6edcdc"></path><path d="M0 309L26.5 368L47.5 317Z" fill="#9ff5f5" stroke="#9ff5f5"></path><path d="M0 215L1.5 252L109.9 225Z" fill="#aff6f6" stroke="#aff6f6"></path><path d="M960 255L883.5 193L892.1 297Z" fill="#75e1e1" stroke="#75e1e1"></path><path d="M928.5 113L960 68L853.1 36Z" fill="#9ff5f5" stroke="#9ff5f5"></path><path d="M8.5 169L0 215L109.9 225Z" fill="#9ff5f5" stroke="#9ff5f5"></path><path d="M0 215L0 254L1.5 252Z" fill="#82eaea" stroke="#82eaea"></path><path d="M1.5 252L0 290L47.5 317Z" fill="#7be5e5" stroke="#7be5e5"></path><path d="M0 254L0 290L1.5 252Z" fill="#aff6f6" stroke="#aff6f6"></path><path d="M0 290L0 291L47.5 317Z" fill="#7be5e5" stroke="#7be5e5"></path><path d="M0 291L0 309L47.5 317Z" fill="#75e1e1" stroke="#75e1e1"></path><path d="M960 326L960 255L892.1 297Z" fill="#9ff5f5" stroke="#9ff5f5"></path><path d="M851.1 548L841.1 540L790.1 540Z" fill="#a7f5f5" stroke="#a7f5f5"></path><path d="M790.1 540L841.1 540L809.1 483Z" fill="#8ff3f3" stroke="#8ff3f3"></path><path d="M960 435L960 408L900.5 399Z" fill="#9ff5f5" stroke="#9ff5f5"></path><path d="M841.1 540L890.5 491L809.1 483Z" fill="#6edcdc" stroke="#6edcdc"></path><path d="M960 343L892.1 297L866.6 334Z" fill="#9ff5f5" stroke="#9ff5f5"></path><path d="M960 343L866.6 334L900.5 399Z" fill="#97f4f4" stroke="#97f4f4"></path><path d="M755.1 549L851.1 548L790.1 540Z" fill="#97f4f4" stroke="#97f4f4"></path><path d="M841.1 540L885.5 540L890.5 491Z" fill="#97f4f4" stroke="#97f4f4"></path><path d="M458.2 560L851.1 548L755.1 549Z" fill="#aff6f6" stroke="#aff6f6"></path><path d="M960 395L960 343L900.5 399Z" fill="#a7f5f5" stroke="#a7f5f5"></path><path d="M960 255L960 94L940.5 117Z" fill="#a7f5f5" stroke="#a7f5f5"></path><path d="M940.5 117L960 94L928.5 113Z" fill="#75e1e1" stroke="#75e1e1"></path><path d="M960 94L960 91L928.5 113Z" fill="#82eaea" stroke="#82eaea"></path><path d="M42.5 540L87.9 540L80.5 475Z" fill="#a7f5f5" stroke="#a7f5f5"></path><path d="M80.5 475L87.9 540L131.9 485Z" fill="#75e1e1" stroke="#75e1e1"></path><path d="M154.9 540L87.9 540L458.2 560Z" fill="#97f4f4" stroke="#97f4f4"></path><path d="M0 431L80.5 475L26.5 368Z" fill="#97f4f4" stroke="#97f4f4"></path><path d="M8.5 169L0 48L0 215Z" fill="#a7f5f5" stroke="#a7f5f5"></path><path d="M48.9 71L0 48L8.5 169Z" fill="#a7f5f5" stroke="#a7f5f5"></path><path d="M0 0L0 48L48.9 71Z" fill="#97f4f4" stroke="#97f4f4"></path><path d="M960 91L960 68L928.5 113Z" fill="#a7f5f5" stroke="#a7f5f5"></path><path d="M900.5 399L873.5 446L960 435Z" fill="#a7f5f5" stroke="#a7f5f5"></path><path d="M960 408L960 395L900.5 399Z" fill="#a7f5f5" stroke="#a7f5f5"></path><path d="M960 435L873.5 446L890.5 491Z" fill="#82eaea" stroke="#82eaea"></path><path d="M851.1 548L885.5 540L841.1 540Z" fill="#89eeee" stroke="#89eeee"></path><path d="M0 309L0 431L26.5 368Z" fill="#6edcdc" stroke="#6edcdc"></path><path d="M0 -19L0 0L86.9 0Z" fill="#9ff5f5" stroke="#9ff5f5"></path><path d="M86.9 0L0 0L48.9 71Z" fill="#75e1e1" stroke="#75e1e1"></path><path d="M960 540L960 435L890.5 491Z" fill="#7be5e5" stroke="#7be5e5"></path><path d="M960 68L960 0L853.1 36Z" fill="#82eaea" stroke="#82eaea"></path><path d="M855.6 8L960 0L805.1 0Z" fill="#8ff3f3" stroke="#8ff3f3"></path><path d="M805.1 0L960 0L626.7 -4Z" fill="#97f4f4" stroke="#97f4f4"></path><path d="M626.7 -4L0 -19L428.3 0Z" fill="#6edcdc" stroke="#6edcdc"></path><path d="M978.5 0L0 -19L626.7 -4Z" fill="#9ff5f5" stroke="#9ff5f5"></path><path d="M0 506L42.5 540L80.5 475Z" fill="#aff6f6" stroke="#aff6f6"></path><path d="M87.9 540L42.5 540L458.2 560Z" fill="#97f4f4" stroke="#97f4f4"></path><path d="M960 68L978.5 0L960 0Z" fill="#7be5e5" stroke="#7be5e5"></path><path d="M960 0L978.5 0L626.7 -4Z" fill="#b6f7f7" stroke="#b6f7f7"></path><path d="M960 91L978.5 0L960 68Z" fill="#b6f7f7" stroke="#b6f7f7"></path><path d="M960 94L978.5 0L960 91Z" fill="#82eaea" stroke="#82eaea"></path><path d="M960 255L978.5 0L960 94Z" fill="#6edcdc" stroke="#6edcdc"></path><path d="M960 326L978.5 0L960 255Z" fill="#97f4f4" stroke="#97f4f4"></path><path d="M960 343L978.5 0L960 326Z" fill="#8ff3f3" stroke="#8ff3f3"></path><path d="M960 395L978.5 0L960 343Z" fill="#a7f5f5" stroke="#a7f5f5"></path><path d="M960 408L978.5 0L960 395Z" fill="#97f4f4" stroke="#97f4f4"></path><path d="M960 435L978.5 0L960 408Z" fill="#7be5e5" stroke="#7be5e5"></path><path d="M0 431L0 506L80.5 475Z" fill="#97f4f4" stroke="#97f4f4"></path><path d="M0 506L0 540L42.5 540Z" fill="#a7f5f5" stroke="#a7f5f5"></path><path d="M42.5 540L0 540L458.2 560Z" fill="#6edcdc" stroke="#6edcdc"></path><path d="M885.5 540L960 540L890.5 491Z" fill="#9ff5f5" stroke="#9ff5f5"></path><path d="M960 435L960 540L978.5 0Z" fill="#9ff5f5" stroke="#9ff5f5"></path><path d="M851.1 548L960 540L885.5 540Z" fill="#97f4f4" stroke="#97f4f4"></path></g></svg>