<?xml version="1.0" standalone="no"?>
<!DOCTYPE svg PUBLIC "-//W3C//DTD SVG 20010904//EN"
 "http://www.w3.org/TR/2001/REC-SVG-20010904/DTD/svg10.dtd">
<svg version="1.0" xmlns="http://www.w3.org/2000/svg"
 width="1024.000000pt" height="1024.000000pt" viewBox="0 0 1024.000000 1024.000000"
 preserveAspectRatio="xMidYMid meet">
<metadata>
Created by potrace 1.14, written by Peter Selinger 2001-2017
</metadata>
<g transform="translate(0.000000,1024.000000) scale(0.100000,-0.100000)"
fill="#000000" stroke="none">
<path d="M5200 10020 c33 -22 174 -90 155 -75 -23 18 -150 85 -162 85 -4 0 -1
-5 7 -10z"/>
<path d="M5110 9994 c0 -7 13 -25 28 -40 16 -16 43 -50 60 -75 16 -25 38 -52
48 -60 10 -8 -6 18 -34 56 -71 97 -102 132 -102 119z"/>
<path d="M3659 9751 c-179 -20 -518 -264 -654 -471 -67 -103 -141 -251 -166
-335 -11 -38 -24 -81 -29 -95 -5 -14 -11 -48 -14 -76 -6 -49 -4 -54 32 -101
117 -147 283 -237 471 -255 248 -23 335 9 434 160 87 134 141 324 119 422 -10
47 -33 45 -52 -5 -29 -78 -62 -127 -132 -201 -87 -92 -171 -144 -231 -144 -51
0 -175 46 -296 109 -43 22 -43 23 -38 66 25 176 192 489 342 640 74 74 105 80
307 61 277 -27 529 -90 700 -177 154 -77 269 -167 446 -347 72 -74 132 -139
132 -143 0 -5 -33 -9 -72 -9 -71 0 -195 -16 -308 -40 -30 -6 -80 -16 -110 -22
-121 -24 -453 -125 -570 -174 -161 -68 -317 -176 -470 -326 -135 -133 -210
-213 -210 -225 0 -5 -24 -29 -52 -53 -148 -126 -296 -288 -416 -458 -67 -95
-122 -176 -122 -181 0 -5 -4 -11 -8 -13 -4 -1 -34 -38 -65 -80 -121 -165 -243
-267 -341 -288 -17 -3 -32 -13 -34 -22 -2 -13 14 -16 100 -22 131 -8 272 8
305 36 24 19 25 2 9 -93 -9 -51 -16 -109 -16 -128 0 -20 -5 -52 -10 -71 -6
-19 -17 -96 -25 -170 -14 -137 -24 -177 -77 -330 -35 -100 -59 -173 -83 -255
-21 -70 -75 -149 -116 -171 -30 -15 -41 -54 -14 -54 7 0 47 17 86 38 51 26
100 64 166 128 51 51 95 89 97 85 3 -4 0 -27 -4 -51 -5 -25 -16 -126 -25 -225
-9 -99 -20 -211 -25 -250 -26 -218 -41 -361 -47 -447 l-6 -98 -52 0 c-29 0
-66 5 -84 11 -60 21 -53 -18 9 -50 19 -10 52 -27 73 -37 20 -10 38 -23 38 -29
1 -5 2 -25 3 -44 1 -33 10 -43 50 -56 17 -5 15 -10 -23 -49 l-42 -43 3 -93 3
-93 100 -28 c165 -47 375 -126 375 -141 0 -8 -355 -3 -479 6 -18 1 -26 -31
-41 -164 -5 -52 -14 -111 -19 -130 -5 -19 -15 -55 -21 -78 -9 -36 -9 -47 4
-60 8 -10 17 -30 21 -47 6 -29 6 -29 -10 -10 -12 14 -19 16 -22 7 -3 -7 -11
-19 -19 -26 -8 -8 -14 -25 -14 -38 0 -26 -9 -63 -49 -198 -16 -52 -35 -117
-43 -145 -12 -40 -18 -49 -34 -47 -10 1 -73 9 -139 17 -66 7 -151 21 -190 30
-38 9 -86 20 -105 25 -96 22 -170 45 -219 67 -68 31 -158 45 -208 31 -53 -14
-63 -25 -63 -68 0 -32 8 -44 57 -92 63 -59 216 -158 276 -177 20 -7 37 -16 37
-19 0 -4 -29 -24 -64 -45 -62 -37 -64 -37 -114 -25 -46 10 -54 9 -72 -7 -11
-10 -20 -24 -20 -31 0 -18 -13 -24 -37 -18 -15 4 -23 17 -28 42 -15 82 -79
149 -130 136 -20 -5 -25 0 -35 31 -21 65 -112 145 -164 145 -25 0 -30 -20 -44
-155 -21 -211 -25 -286 -13 -298 6 -6 11 -18 11 -26 0 -9 14 -34 30 -55 17
-22 30 -48 30 -58 0 -23 61 -186 97 -257 15 -31 40 -62 57 -72 42 -26 106 -25
134 1 12 12 22 17 22 11 0 -5 21 -32 46 -60 31 -34 54 -51 70 -51 13 0 67 23
121 51 l97 51 19 -26 c19 -27 97 -56 149 -56 15 0 28 -5 28 -11 0 -7 18 -10
50 -7 28 1 50 2 50 2 0 -1 -11 -36 -25 -78 -29 -89 -31 -103 -11 -87 8 7 17
27 20 45 9 47 31 75 47 59 18 -18 75 -18 61 0 -6 6 -13 29 -17 49 -8 42 -17
35 110 84 38 15 76 33 83 41 7 7 20 13 28 13 8 0 14 3 14 8 0 4 16 16 35 26
42 23 109 94 113 121 3 12 -9 4 -32 -24 -20 -24 -47 -51 -59 -61 -39 -31 -199
-106 -286 -135 -77 -25 -93 -27 -178 -22 -154 10 -190 43 -214 192 -7 44 -7
40 -5 -28 l3 -78 -104 -52 -103 -51 -40 39 c-46 45 -57 77 -66 195 -6 82 -5
91 39 230 25 80 48 157 51 171 6 30 39 43 68 28 24 -13 46 -57 54 -108 10 -65
25 -59 18 8 -4 32 -4 70 0 84 7 30 80 79 157 106 30 11 52 20 49 21 -3 1 -27
4 -54 7 -61 6 -112 31 -249 123 -104 69 -147 115 -147 158 0 24 24 32 107 32
52 0 74 -6 140 -39 52 -26 103 -43 153 -50 41 -6 111 -21 155 -32 45 -12 137
-24 210 -28 99 -6 142 -13 181 -30 60 -26 146 -110 169 -163 10 -26 31 -48 68
-71 59 -38 105 -88 111 -120 2 -12 10 -47 17 -79 7 -34 10 -96 7 -156 -5 -94
-4 -100 19 -122 33 -32 38 -65 17 -111 -18 -41 -15 -65 16 -134 5 -11 14 -33
20 -49 16 -43 23 -25 10 24 -11 41 -10 44 18 74 32 34 57 76 45 76 -4 0 -22
-14 -40 -32 -41 -40 -52 -31 -28 23 24 53 22 75 -9 108 -29 30 -34 76 -13 105
13 18 25 18 182 10 111 -6 169 -6 171 1 1 6 5 27 9 47 3 21 17 50 30 65 22 27
27 28 139 31 188 6 297 -38 419 -168 78 -83 137 -184 119 -202 -7 -7 -15 -1
-26 20 -38 73 -179 182 -318 246 -147 68 -258 69 -298 3 -25 -41 -25 -47 3
-47 12 0 31 -7 41 -15 27 -20 33 -19 40 7 3 13 18 39 34 58 l30 35 69 -23
c107 -34 237 -116 326 -204 59 -60 77 -84 77 -105 0 -57 -8 -58 -132 -15 -124
44 -231 63 -336 61 -52 -2 -40 -4 51 -10 170 -12 377 -82 377 -128 0 -29 -34
-111 -46 -111 -7 0 -33 9 -58 20 -140 60 -423 65 -499 9 -39 -29 -59 -12 -51
45 l5 41 -16 -29 c-12 -21 -15 -40 -10 -72 5 -36 3 -44 -9 -44 -12 0 -16 10
-16 35 0 19 -2 35 -5 35 -3 0 -22 -18 -43 -39 l-37 -39 90 -5 c123 -7 349 -25
413 -32 72 -9 62 -26 -27 -47 -65 -15 -79 -23 -144 -81 -63 -56 -281 -221
-324 -246 -12 -6 -13 -12 -5 -27 9 -16 4 -26 -31 -63 -29 -30 -34 -38 -16 -27
24 15 27 15 41 -1 8 -10 45 -79 82 -153 80 -158 101 -188 167 -238 48 -36 49
-37 49 -91 0 -80 -27 -164 -66 -208 l-34 -38 -61 67 -61 67 -69 -46 c-37 -25
-75 -43 -83 -40 -7 3 -21 28 -31 56 -9 28 -20 51 -23 51 -13 0 -117 -41 -126
-50 -4 -4 0 -56 9 -115 19 -125 22 -121 -75 -130 -94 -9 -90 -5 -90 -84 0 -38
-4 -72 -8 -75 -15 -9 -145 14 -182 32 -47 23 -58 50 -78 199 l-17 127 -58 14
-57 14 -1 157 c0 86 -4 176 -7 201 -7 43 -8 44 -22 24 -10 -14 -24 -20 -40
-18 -14 2 -52 -1 -85 -7 -33 -5 -71 -11 -85 -13 -14 -3 -33 -5 -42 -5 -12 -1
-18 -9 -19 -23 0 -13 -4 -32 -9 -43 -6 -13 -7 -3 -3 28 6 53 -4 60 -37 25 -16
-17 -19 -18 -15 -5 9 21 -13 23 -41 2 -10 -8 -33 -15 -50 -15 -17 0 -51 -7
-74 -15 -57 -20 -144 -20 -164 1 -22 21 -7 46 38 64 20 7 36 18 36 23 0 12 42
46 57 47 6 0 13 4 15 8 6 18 170 132 188 132 10 0 22 5 25 10 4 6 24 21 44 34
29 19 42 37 58 83 30 83 53 167 53 193 0 37 -32 19 -44 -25 -9 -32 -13 -36
-19 -22 -4 10 -4 29 -1 43 4 17 1 26 -11 30 -24 10 -32 -3 -52 -84 l-18 -74
-50 6 c-108 13 -135 18 -135 27 0 5 -26 9 -58 9 -46 0 -63 4 -77 20 -10 11
-23 17 -29 13 -6 -4 -2 3 8 15 11 12 25 22 33 22 7 0 13 4 13 9 0 5 8 7 19 4
10 -3 22 0 25 6 4 6 2 11 -3 11 -6 0 -11 6 -11 14 0 20 -33 13 -45 -10 -10
-19 -36 -31 -34 -17 3 17 -1 33 -8 32 -23 -4 -32 3 -27 19 5 16 5 16 -8 0 -10
-11 -26 -16 -49 -14 -19 2 -40 -1 -47 -7 -9 -7 -16 -7 -24 1 -12 12 -38 -7
-38 -29 0 -7 -10 -3 -24 10 -14 13 -30 20 -38 16 -7 -3 -5 0 4 8 10 8 15 17
12 20 -4 3 -13 -1 -22 -9 -8 -9 -18 -12 -21 -7 -11 15 -34 14 -28 -1 4 -10 1
-13 -9 -9 -7 3 -14 9 -14 13 0 10 -29 6 -62 -8 -16 -6 -28 -19 -28 -27 0 -9
-5 -13 -10 -10 -7 4 -8 11 -1 18 6 8 -1 17 -25 29 -23 12 -35 14 -40 6 -4 -6
-3 -8 3 -5 6 4 15 1 21 -6 8 -10 5 -13 -13 -15 -13 -1 -27 3 -30 8 -9 14 -59
12 -73 -3 -7 -6 -23 -12 -36 -12 -18 -1 -22 4 -19 20 4 18 3 18 -16 -4 -25
-28 -38 -23 -21 8 7 14 7 21 0 21 -5 0 -10 -6 -10 -14 0 -21 -19 -30 -35 -16
-11 9 -17 6 -29 -17 -15 -27 -16 -27 -22 -6 -3 12 -13 24 -21 27 -7 3 -12 2
-10 -2 3 -4 -5 -16 -16 -27 l-20 -20 12 22 c10 19 9 22 -4 17 -8 -4 -15 -1
-15 6 0 6 -5 8 -10 5 -6 -4 -8 -10 -5 -15 3 -5 0 -12 -6 -16 -7 -4 -9 -3 -6 3
9 14 -48 37 -64 27 -9 -5 -10 -2 -6 12 7 18 7 18 -8 0 -12 -16 -12 -22 -2 -28
7 -5 1 -7 -15 -4 -18 3 -31 -1 -36 -11 -8 -13 -12 -10 -23 16 -8 17 -18 29
-24 27 -5 -2 -18 1 -27 5 -11 6 -19 5 -24 -3 -4 -6 -3 -8 2 -5 6 3 16 2 24 -4
12 -7 10 -9 -7 -9 -12 0 -25 -4 -28 -10 -3 -6 1 -7 9 -4 9 3 16 2 16 -4 0 -11
-25 -10 -36 0 -3 4 -12 4 -20 1 -8 -3 -14 0 -14 5 0 6 9 9 20 7 12 -2 18 0 14
6 -4 6 -20 8 -39 5 -18 -4 -45 -1 -59 5 -21 10 -29 10 -39 -1 -9 -10 -9 -11 1
-6 6 4 12 2 12 -3 0 -10 -7 -13 -27 -10 -5 1 -7 5 -6 10 2 4 -4 6 -12 3 -9 -4
-15 0 -15 10 0 19 -16 21 -26 4 -4 -6 -3 -8 3 -5 5 3 9 -4 7 -16 -4 -34 -4
-34 -18 -2 -8 19 -15 25 -20 17 -4 -7 -2 -12 6 -13 7 0 3 -4 -10 -10 -13 -5
-21 -13 -17 -18 3 -5 2 -12 -3 -15 -4 -2 -8 4 -9 14 -1 11 3 22 8 25 12 8 2
25 -14 25 -7 0 -6 -4 3 -10 13 -9 13 -10 0 -11 -8 -1 -26 -3 -40 -4 -13 -1
-30 5 -37 14 -10 13 -12 -181 -13 -952 l0 -967 1101 2 1102 3 20 54 c12 30 23
49 25 43 2 -6 9 -9 17 -6 10 4 12 0 8 -15 -3 -12 0 -28 7 -36 7 -8 9 -15 5
-15 -4 0 -2 -7 5 -15 10 -13 52 -15 256 -15 l243 0 -88 88 c-116 115 -203 249
-236 361 -10 32 13 18 26 -17 8 -22 12 -24 21 -12 8 12 9 11 4 -4 -7 -20 36
-102 88 -171 67 -89 139 -166 152 -161 7 3 15 -2 18 -10 3 -9 10 -12 16 -9 5
3 10 1 10 -5 0 -6 4 -8 10 -5 5 3 7 0 5 -7 -3 -8 7 -21 24 -31 26 -15 62 -17
313 -17 l285 0 -18 83 c-14 60 -19 125 -19 247 0 257 -29 394 -110 531 l-40
68 33 73 c56 121 139 173 214 133 45 -24 75 -66 107 -150 15 -38 34 -86 42
-105 9 -19 26 -73 39 -120 12 -47 32 -111 44 -142 11 -32 31 -107 43 -168 12
-60 25 -110 29 -110 4 0 17 15 28 34 30 49 77 63 83 26 3 -19 5 -19 32 -5 31
17 397 129 458 140 10 2 28 11 40 19 48 34 53 3 8 -47 -16 -19 -30 -37 -30
-40 0 -3 19 2 43 13 23 10 61 21 85 25 23 4 42 11 42 17 0 6 -8 7 -17 3 -29
-12 -93 -18 -93 -10 0 5 7 16 15 25 34 38 -9 60 -62 32 -12 -7 -33 -12 -48
-12 -14 0 -39 -10 -56 -22 -38 -28 -48 -19 -83 76 -21 55 -26 86 -26 158 0 80
-4 98 -34 167 -37 85 -88 236 -117 351 -29 114 -26 342 6 530 29 172 49 245
110 405 30 80 38 118 65 305 21 155 29 193 65 310 15 47 35 139 45 205 15 94
94 416 106 433 1 2 17 -7 34 -19 25 -19 30 -28 25 -49 -14 -55 -86 -406 -95
-468 -6 -37 -22 -104 -36 -150 -28 -92 -28 -148 -1 -66 21 62 65 106 217 214
182 130 191 138 184 165 -4 17 0 29 15 42 12 9 21 24 21 31 0 8 -16 65 -35
128 -63 200 -85 316 -85 447 0 116 0 118 25 129 14 6 25 15 25 20 0 14 -26 9
-52 -12 -23 -17 -24 -23 -17 -67 12 -71 11 -222 -2 -267 -20 -72 -83 -110
-142 -88 -113 43 -253 168 -310 278 -20 40 -37 79 -37 88 0 25 49 116 66 123
24 9 27 -3 10 -36 -9 -16 -16 -34 -16 -39 0 -5 21 -29 46 -53 25 -24 72 -78
104 -119 51 -65 97 -108 104 -98 15 21 44 170 55 282 7 69 12 83 35 103 35 30
144 34 168 6 37 -42 66 -134 98 -308 16 -88 47 -176 98 -285 23 -47 45 -108
50 -135 l9 -50 7 40 c10 56 41 144 91 255 23 52 59 147 80 210 57 177 100 241
187 286 56 28 89 30 110 7 43 -49 108 -218 127 -330 9 -48 17 -73 26 -73 8 0
49 12 92 28 106 37 241 127 289 191 21 28 41 51 44 51 9 0 0 -130 -11 -166
-19 -60 -123 -159 -189 -179 -14 -4 -65 -25 -115 -46 -82 -35 -259 -79 -270
-67 -2 2 -18 76 -35 164 -32 168 -52 239 -75 270 -12 16 -12 14 0 -21 39 -115
31 -159 -62 -355 -30 -63 -73 -161 -94 -218 -39 -101 -39 -104 -22 -132 16
-28 16 -30 -2 -50 -19 -21 -18 -22 101 -141 65 -67 153 -147 195 -179 113 -87
129 -109 129 -180 0 -118 -19 -147 -60 -90 -26 36 -272 265 -303 281 -12 7 48
-56 133 -138 86 -83 168 -169 184 -191 26 -38 27 -44 18 -94 -19 -95 -23 -158
-12 -158 5 0 10 11 10 25 0 14 9 82 20 152 11 71 27 196 35 278 39 425 84 716
122 794 17 35 85 83 98 69 4 -3 -1 -35 -9 -70 -58 -238 -120 -726 -146 -1148
-6 -96 -20 -237 -31 -313 -35 -251 -23 -600 32 -962 11 -71 29 -202 39 -290
11 -88 24 -185 29 -215 8 -46 7 -57 -7 -68 -24 -19 -51 -14 -62 10 -16 38 -40
174 -40 226 0 26 -4 52 -9 58 -5 5 -11 41 -14 79 -3 39 -14 122 -26 185 -18
101 -52 336 -65 455 -2 22 -2 -43 1 -145 3 -102 9 -187 13 -190 7 -5 15 -76
11 -109 0 -7 -7 -11 -16 -7 -17 6 -20 -15 -4 -31 8 -8 8 -13 0 -17 -6 -4 -11
-16 -11 -27 0 -17 19 -25 51 -21 11 2 19 -74 13 -121 -4 -28 -2 -47 5 -51 6
-4 11 -17 10 -29 0 -15 -2 -17 -6 -7 -7 20 -44 60 -55 60 -5 0 -7 -4 -4 -8 2
-4 -10 -8 -27 -9 -39 0 -69 -12 -61 -24 3 -5 -5 -9 -18 -9 -18 0 -20 -2 -8
-10 12 -8 12 -10 -3 -16 -10 -4 -16 -13 -13 -20 3 -8 0 -14 -7 -14 -7 0 -13
-9 -13 -19 0 -14 4 -17 12 -10 8 6 19 3 35 -10 13 -11 22 -21 19 -24 -3 -2
-39 -8 -79 -11 -41 -4 -79 -10 -84 -13 -5 -3 -14 1 -19 8 -7 10 -8 5 -4 -17 4
-25 2 -31 -11 -30 -9 0 -18 -5 -20 -12 -3 -7 1 -13 8 -11 26 3 39 -1 39 -12 0
-6 -9 -8 -20 -4 -14 5 -20 2 -20 -9 0 -9 5 -16 12 -16 9 0 9 -3 0 -12 -9 -9
-15 -9 -23 -1 -15 15 -14 52 2 90 12 29 11 33 -12 52 -25 21 -86 22 -98 2 -10
-16 -58 -24 -66 -11 -4 7 -2 16 5 20 8 5 10 15 5 26 -7 18 -7 18 -14 0 -7 -18
-9 -17 -19 10 -7 16 -28 54 -47 84 -55 87 -51 91 75 64 41 -9 84 -18 95 -20
57 -12 124 -14 160 -6 31 8 34 10 15 12 -14 1 -32 3 -40 5 -27 5 -297 45 -324
47 -18 2 -28 9 -31 23 -2 11 -15 67 -29 125 -61 255 -101 517 -90 583 4 28 32
71 105 162 111 138 96 129 276 166 50 10 138 21 196 25 l104 7 6 -63 c4 -35 8
-90 8 -124 2 -55 26 252 28 348 1 34 -1 37 -11 24 -7 -9 -33 -21 -58 -26 -44
-10 -44 -10 -10 -11 56 -2 64 -11 54 -67 l-9 -49 -65 -7 c-128 -15 -284 -40
-329 -54 -60 -18 -58 -18 -63 13 -3 16 -9 36 -13 45 -6 14 2 22 36 37 l44 20
-45 -2 -44 -2 -53 145 c-63 175 -81 210 -104 210 -42 0 -128 -108 -199 -250
-18 -36 -34 -67 -36 -68 -1 -2 -38 10 -81 26 -79 30 -149 46 -257 58 -57 6
-58 6 -52 32 3 15 18 86 35 157 16 72 32 155 36 185 6 45 14 61 41 87 44 41
257 190 399 279 61 38 134 89 164 113 l54 44 21 -29 c34 -47 78 -95 83 -90 3
2 -16 29 -40 59 -25 31 -48 65 -52 76 -8 26 -22 27 -30 2 -8 -27 -67 -73 -235
-183 -80 -52 -197 -132 -260 -177 -63 -44 -123 -81 -132 -81 -14 0 -18 -8 -18
-32 0 -48 -28 -199 -50 -271 -36 -117 -90 -324 -105 -403 -25 -132 -16 -146
16 -24 16 63 34 119 38 123 19 19 322 -46 360 -76 8 -7 38 -62 67 -123 l54
-111 0 -109 c0 -126 16 -297 35 -369 58 -227 71 -301 54 -321 -9 -11 -6 -19
13 -37 44 -41 57 -117 35 -202 -3 -11 -6 -25 -6 -32 -1 -17 -31 -32 -74 -37
-19 -2 -48 -12 -63 -20 -18 -11 -21 -15 -9 -12 78 19 327 56 337 50 4 -3 8
-12 8 -21 0 -16 -5 -17 138 3 62 8 62 7 23 -80 -28 -62 -30 -64 -85 -81 -31
-10 -61 -24 -67 -31 -6 -8 -29 -14 -50 -14 -30 0 -39 -4 -39 -17 0 -10 -3 -28
-6 -39 -5 -21 -2 -22 71 -26 89 -4 95 -9 95 -90 0 -94 12 -88 -191 -88 l-179
0 0 -55 0 -55 269 0 269 0 6 31 c3 17 6 47 6 65 0 28 4 35 26 40 27 7 117 -1
134 -11 6 -3 10 -33 10 -66 l0 -59 739 0 c735 0 739 0 734 20 -5 20 -5 20 38
0 37 -16 66 -20 186 -20 l142 0 21 73 c12 39 38 125 59 190 l37 118 -129 67
c-188 98 -232 126 -229 143 1 9 -7 24 -18 34 -23 20 -24 17 -10 -19 6 -17 6
-26 -1 -26 -8 0 -127 56 -137 65 -1 1 1 18 5 38 l8 37 50 -25 c28 -14 104 -53
170 -87 66 -33 179 -88 250 -120 72 -33 134 -63 139 -68 4 -4 -17 -97 -48
-207 -31 -109 -56 -201 -56 -205 0 -5 87 -8 194 -8 l194 0 10 28 c6 15 16 44
22 64 6 21 15 40 19 43 5 2 20 -27 35 -65 15 -39 32 -70 36 -70 5 0 -3 30 -17
67 -34 91 -36 103 -24 149 22 82 21 82 166 20 71 -31 133 -60 138 -65 5 -5 -3
-42 -21 -90 -16 -45 -26 -81 -22 -81 5 0 16 23 25 51 10 28 23 63 30 76 17 33
3 59 -43 79 -20 8 -31 18 -27 24 4 7 0 10 -11 8 -11 -2 -18 2 -17 9 3 12 -18
31 -51 48 -11 6 -22 20 -24 32 -2 13 -9 20 -16 17 -16 -6 -17 76 -1 91 7 6 18
29 25 53 7 23 18 41 24 39 6 -2 16 3 22 11 11 15 39 8 30 -7 -3 -4 1 -8 9 -8
7 0 23 26 34 58 22 60 43 85 63 76 7 -3 30 -12 51 -21 20 -9 37 -14 37 -11 0
3 -12 10 -26 15 -14 6 -22 15 -19 21 4 6 0 9 -10 7 -12 -2 -21 9 -31 37 -13
38 -12 41 9 58 l22 19 -22 -5 c-14 -3 -20 -1 -17 7 3 8 17 11 34 8 31 -4 38 6
18 26 -9 9 -6 16 12 32 13 11 28 20 34 20 6 0 4 -5 -4 -10 -13 -8 -12 -10 3
-10 9 0 17 -5 17 -11 0 -5 5 -7 11 -4 6 4 8 13 5 21 -3 8 -1 14 4 14 6 0 10
-6 10 -14 0 -10 7 -12 22 -8 17 4 20 2 15 -11 -3 -9 -2 -19 2 -22 13 -7 21 19
14 47 -6 20 -4 21 9 11 8 -7 18 -10 21 -6 4 3 7 1 7 -5 0 -7 5 -12 10 -12 6 0
10 9 10 21 0 13 -4 18 -12 13 -7 -4 -8 -3 -4 4 4 7 2 12 -5 12 -7 0 -10 2 -7
5 10 10 58 -7 52 -17 -4 -6 4 -4 17 3 13 7 28 12 33 11 5 -2 3 4 -4 13 -19 23
-7 28 26 10 37 -19 50 -19 34 1 -8 8 -9 14 -4 13 5 -1 20 2 33 8 24 10 24 10
3 15 -12 4 -22 12 -22 20 0 10 2 10 10 -2 5 -8 12 -11 16 -8 3 4 -6 28 -20 54
-14 26 -25 49 -22 51 23 23 433 -910 453 -1031 l6 -38 -34 6 c-25 4 -29 4 -14
-3 25 -12 82 -14 89 -3 2 4 -6 32 -19 62 -13 30 -22 62 -19 71 2 9 -3 25 -12
34 -10 9 -17 30 -17 46 0 15 -4 26 -8 24 -4 -3 -9 2 -13 10 -3 8 -1 15 5 15 6
0 7 6 3 12 -5 7 -9 19 -10 28 -1 8 -5 26 -7 40 -16 76 -17 137 -3 165 8 17 25
81 37 144 13 63 25 109 27 102 2 -6 8 -11 13 -11 6 0 5 9 -1 21 -6 11 -9 28
-7 37 3 12 5 10 6 -6 0 -13 5 -20 11 -17 5 3 7 0 4 -8 -6 -18 12 -32 21 -17 4
6 12 4 22 -6 15 -14 18 -14 32 11 10 16 22 24 33 22 11 -3 20 4 27 22 9 24 9
24 10 4 1 -13 5 -23 10 -23 5 0 7 10 3 22 -4 17 -2 20 11 15 14 -5 15 -3 4 14
-9 15 -9 21 0 27 9 6 6 22 -13 62 -42 90 -12 45 97 -145 56 -99 147 -256 202
-350 56 -93 129 -222 164 -285 79 -147 83 -153 90 -146 7 7 -130 262 -264 491
-193 329 -330 595 -374 724 -26 77 -47 182 -41 205 2 4 -3 15 -10 24 -11 13
-10 15 3 10 9 -4 22 -1 28 5 8 8 14 7 24 -2 10 -11 9 -13 -6 -8 -15 6 -16 4
-7 -13 17 -33 47 -24 41 12 0 5 8 8 19 8 22 0 26 -10 9 -27 -8 -8 -8 -13 0
-17 6 -4 11 -2 11 3 0 6 5 11 11 11 6 0 9 -7 5 -15 -3 -8 0 -14 6 -12 7 1 12
-4 13 -10 0 -7 10 -20 23 -28 12 -9 22 -22 22 -28 0 -7 15 -29 34 -49 19 -20
36 -43 39 -50 4 -10 8 -10 16 1 6 10 6 21 0 33 -7 14 -6 16 6 12 24 -10 21 29
-14 196 l-8 35 38 0 c21 1 36 -2 33 -6 -2 -4 0 -10 6 -14 6 -4 7 -12 3 -18 -5
-8 -2 -8 9 0 8 7 19 9 23 5 5 -4 5 -1 1 6 -4 6 -3 12 2 12 5 0 15 -13 22 -30
7 -16 16 -30 21 -30 17 0 -119 303 -201 446 -142 246 -297 505 -360 599 -37
55 -72 111 -79 125 -11 22 -10 21 13 -5 14 -16 25 -34 26 -38 0 -5 4 -6 9 -3
5 3 8 -2 7 -12 0 -9 5 -16 12 -14 8 1 11 -2 7 -8 -6 -10 9 -19 39 -24 8 -1 19
-6 23 -11 4 -4 3 -5 -4 -1 -6 3 -14 2 -18 -4 -3 -5 -1 -10 5 -10 6 0 8 -4 5
-10 -4 -6 1 -7 11 -3 14 5 15 3 4 -18 -12 -22 -12 -23 3 -10 14 11 20 11 32 1
15 -13 21 -35 7 -26 -4 2 -8 -7 -7 -21 0 -15 6 -27 13 -29 7 -1 8 0 2 3 -13 6
-13 23 -1 23 5 0 13 -9 16 -20 4 -11 10 -18 15 -15 5 3 12 0 16 -6 5 -8 3 -9
-6 -4 -19 12 -10 -5 40 -73 25 -33 52 -64 60 -67 17 -7 80 -99 80 -117 0 -6
22 -37 48 -67 149 -174 407 -531 567 -786 38 -60 94 -146 123 -189 30 -44 62
-96 71 -115 32 -71 96 -165 99 -147 2 9 -15 46 -38 81 -33 51 -41 71 -36 92 4
17 3 23 -2 15 -10 -15 -19 -6 -92 103 -76 114 -204 324 -181 297 11 -12 26
-22 35 -22 9 0 16 -5 16 -10 0 -6 8 -10 18 -8 10 2 16 -2 14 -11 -3 -12 -1
-12 13 -1 12 10 19 10 27 2 9 -9 9 -12 0 -12 -7 0 -12 -5 -12 -11 0 -8 4 -8
14 0 15 13 49 -1 113 -47 19 -13 38 -20 45 -16 7 4 10 4 6 0 -8 -10 14 -36 25
-29 16 10 18 -29 3 -74 -25 -72 -18 -76 9 -4 22 56 25 79 25 199 0 114 -3 139
-17 156 -17 20 -17 20 0 7 16 -13 17 -5 16 140 -1 126 -3 144 -10 101 -10 -60
-43 -143 -73 -184 -11 -15 -21 -27 -22 -25 -2 1 4 34 13 72 12 54 13 73 4 88
-7 10 -8 16 -2 13 18 -11 20 26 16 254 -3 190 -24 453 -40 498 -8 23 13 12 44
-23 17 -20 31 -39 31 -42 0 -4 7 -64 15 -133 8 -69 16 -141 19 -160 2 -19 3
30 2 110 -1 80 -6 154 -11 164 -6 14 -5 17 3 12 16 -10 16 16 0 32 -9 9 -9 12
2 12 8 0 2 12 -16 31 l-29 32 27 -18 c24 -15 28 -15 28 -2 0 8 -9 21 -19 28
-13 10 -27 50 -46 134 -29 129 -93 320 -131 397 -13 26 -24 54 -24 62 0 8 -3
16 -7 18 -5 2 -18 23 -31 48 -43 84 -83 155 -113 201 -16 25 -29 51 -29 57 0
5 -4 12 -9 14 -12 4 -141 186 -141 198 0 4 -4 10 -8 12 -4 2 -34 39 -67 83
-33 44 -62 82 -65 85 -3 3 -32 40 -65 84 -229 300 -283 370 -365 471 -45 55
-96 118 -113 140 -31 38 -82 99 -102 121 -5 6 -44 53 -85 105 -41 51 -91 111
-110 133 -39 45 -81 97 -188 231 -40 50 -81 101 -92 113 -11 13 -20 26 -20 28
0 2 -40 59 -88 126 -83 116 -178 259 -227 340 -103 172 -132 228 -179 350 -50
130 -166 484 -166 506 0 9 133 32 183 32 41 0 37 36 -5 45 -44 8 -79 21 -165
61 l-72 33 6 64 c3 36 0 102 -6 147 -7 45 -11 84 -9 86 2 2 20 -1 39 -6 54
-15 292 -41 301 -32 12 12 -4 27 -62 58 -91 48 -212 138 -287 213 -63 63 -140
173 -210 301 -72 130 -92 164 -139 237 -29 44 -68 99 -88 120 -19 22 -40 52
-45 66 -6 15 -17 27 -25 27 -8 0 -55 51 -104 113 -165 206 -358 376 -547 482
-145 81 -178 97 -275 129 -147 48 -235 61 -580 86 -63 4 -122 10 -130 14 -20
7 -271 36 -320 36 -36 0 -38 2 -70 68 -19 37 -69 119 -112 183 -224 332 -441
483 -853 597 -136 38 -382 58 -516 43z m164 -28 c-18 -2 -48 -2 -65 0 -18 2
-4 4 32 4 36 0 50 -2 33 -4z m-150 -10 c-7 -2 -21 -2 -30 0 -10 3 -4 5 12 5
17 0 24 -2 18 -5z m265 0 c-10 -2 -26 -2 -35 0 -10 3 -2 5 17 5 19 0 27 -2 18
-5z m-423 -42 c-155 -74 -411 -325 -490 -481 -73 -144 -145 -377 -145 -469 0
-38 140 -164 238 -215 19 -10 31 -20 29 -23 -12 -11 -157 70 -224 127 -101 84
-106 96 -83 201 33 151 125 356 215 478 57 78 219 241 296 299 60 45 184 111
209 112 8 0 -12 -13 -45 -29z m840 -985 c-214 -72 -357 -130 -377 -153 -8 -11
-14 -56 -17 -131 l-3 -114 -108 7 c-69 4 -137 2 -190 -6 l-84 -12 -80 -77
c-93 -89 -151 -140 -160 -140 -19 0 4 30 91 120 126 132 308 273 453 353 131
71 549 216 625 216 31 0 -3 -15 -150 -63z m-12 -50 c3 -8 0 -19 -7 -26 -10 -8
-15 -6 -20 6 -7 17 0 34 14 34 4 0 10 -6 13 -14z m-115 -90 c2 -15 1 -39 -3
-53 -5 -21 -10 -24 -48 -21 l-42 3 -3 53 -3 53 48 -3 c45 -3 48 -5 51 -32z
m273 -303 c-48 -58 -102 -142 -128 -202 -90 -202 -183 -515 -224 -751 -21
-115 -24 -165 -22 -335 1 -170 5 -217 26 -315 13 -63 23 -117 20 -119 -14 -17
-35 41 -53 149 -52 319 -4 697 139 1108 98 281 143 372 229 466 43 47 52 46
13 -1z m-978 -137 c-88 -47 -280 -187 -335 -243 l-46 -48 14 -84 c23 -128 23
-128 -70 -162 -44 -16 -85 -29 -91 -29 -6 0 -17 16 -24 36 -10 29 -15 33 -27
23 -9 -7 -12 -20 -9 -33 4 -14 3 -17 -2 -8 -7 9 -23 -7 -56 -53 -26 -36 -45
-70 -42 -76 4 -5 11 -7 16 -3 5 3 7 9 5 13 -6 10 25 8 42 -3 11 -6 10 -13 -2
-32 -21 -31 -21 -84 -1 -84 15 0 95 46 105 60 8 11 92 109 118 137 36 39 25
14 -20 -46 -182 -245 -294 -357 -425 -424 -96 -49 -136 -62 -230 -72 l-63 -6
23 23 c12 13 39 36 60 51 67 50 188 198 295 362 127 195 170 251 289 381 147
161 285 263 443 327 90 37 107 33 33 -7z m243 -198 c-42 -74 -66 -122 -66
-134 0 -6 -16 -41 -35 -78 -42 -82 -44 -119 -8 -198 31 -69 33 -66 -70 -123
-83 -47 -88 -57 -152 -275 -20 -69 -47 -159 -59 -200 -13 -41 -27 -88 -30
-104 -4 -15 -9 -27 -11 -24 -6 6 42 278 65 368 32 125 86 270 155 418 36 76
65 143 65 149 0 13 50 105 65 118 6 6 31 36 54 68 24 31 45 57 48 57 2 0 -7
-19 -21 -42z m-118 -33 c7 -14 12 -35 12 -47 0 -17 -2 -18 -15 -8 -8 7 -15 19
-15 27 0 8 -3 13 -7 11 -28 -15 -82 -37 -94 -40 -26 -6 -28 -21 -8 -60 17 -33
24 -38 42 -32 12 3 26 10 32 15 16 15 23 10 18 -12 -7 -25 -83 -83 -94 -72 -7
7 -69 150 -69 160 0 6 162 83 175 83 7 0 17 -11 23 -25z m3596 -129 c-8 -21
-63 -61 -108 -80 -47 -20 -53 -20 -53 -2 0 8 6 12 12 9 7 -2 19 2 26 9 8 8 35
24 61 37 27 12 50 27 54 32 8 14 14 11 8 -5z m146 -143 c23 -38 63 -104 90
-147 39 -63 47 -83 39 -98 -12 -22 -6 -34 24 -50 20 -10 21 -10 8 6 -8 9 -11
19 -8 22 3 3 12 -7 21 -23 26 -52 95 -131 149 -174 28 -23 53 -45 53 -50 1 -5
2 -13 3 -19 0 -5 8 -10 17 -10 8 0 13 -4 9 -9 -3 -5 3 -12 12 -15 10 -3 -6 -2
-36 1 -30 3 -86 16 -125 29 -58 20 -67 21 -50 6 24 -19 51 -94 58 -162 3 -25
3 -36 0 -26 -5 15 -8 16 -14 5 -13 -20 -72 116 -74 168 0 23 -3 40 -4 38 -7
-7 -72 58 -78 79 -4 12 -29 66 -57 121 -95 189 -107 215 -107 232 0 23 21 143
26 143 2 0 22 -30 44 -67z m-323 41 c-3 -3 -12 -4 -19 -1 -8 3 -5 6 6 6 11 1
17 -2 13 -5z m-54 -11 c-7 -2 -21 -2 -30 0 -10 3 -4 5 12 5 17 0 24 -2 18 -5z
m-1027 -55 c4 -7 4 -10 -1 -6 -4 4 -15 2 -24 -5 -14 -11 -14 -10 -2 6 16 20
18 21 27 5z m-3047 -59 c-11 -11 -23 -18 -27 -15 -3 4 3 13 14 21 28 22 37 18
13 -6z m2964 -40 c-10 -17 -24 -36 -32 -42 -8 -7 -2 7 14 31 32 49 45 57 18
11z m-1869 -43 c33 -44 33 -57 -4 -84 -41 -30 -55 -28 -85 16 l-26 37 36 33
c19 17 39 32 44 32 5 0 20 -15 35 -34z m2459 -49 c29 -24 29 -24 14 -68 -8
-24 -19 -44 -23 -46 -5 -1 -24 16 -41 38 -26 32 -31 45 -23 59 6 10 10 28 10
40 0 23 13 19 63 -23z m-657 -16 c-14 -22 -26 -46 -27 -53 0 -9 -2 -9 -5 -2
-5 12 47 106 54 99 2 -1 -8 -21 -22 -44z m-1168 -45 c5 -24 -10 -38 -31 -30
-17 6 -23 35 -10 48 12 12 38 1 41 -18z m1985 -25 c23 -16 54 -41 70 -54 l27
-24 -29 -64 c-30 -65 -43 -67 -16 -2 8 19 15 42 15 51 0 16 -71 82 -102 94
-10 4 -18 12 -18 18 0 15 8 13 53 -19z m-626 -127 c15 6 15 4 7 -17 -4 -12
-29 2 -105 60 -130 100 -139 115 -13 24 54 -40 104 -69 111 -67z m-1053 120
c20 -8 21 -48 1 -64 -34 -28 -69 18 -40 50 21 23 18 22 39 14z m-1982 -140
c-61 -123 -177 -387 -225 -514 -19 -52 -63 -171 -98 -265 -101 -276 -197 -510
-199 -481 -3 69 261 777 381 1021 79 163 180 347 187 341 2 -2 -19 -48 -46
-102z m3088 78 c0 -5 -7 -17 -15 -28 -14 -18 -14 -17 -4 9 12 27 19 34 19 19z
m493 -52 c3 -11 3 -20 1 -20 -2 0 -8 9 -14 20 -6 11 -7 20 -2 20 6 0 12 -9 15
-20z m647 -30 c12 -16 19 -30 16 -30 -2 0 -14 14 -26 30 -12 17 -19 30 -16 30
2 0 14 -13 26 -30z m-530 -72 c0 -12 -93 55 -98 72 -2 6 19 -5 47 -25 28 -20
51 -41 51 -47z m571 15 c13 -16 12 -17 -3 -4 -10 7 -18 15 -18 17 0 8 8 3 21
-13z m85 -105 c33 -39 106 -112 164 -161 133 -113 126 -107 113 -107 -6 0 -19
8 -29 18 -19 19 -54 23 -67 7 -5 -6 -7 -3 -3 8 4 12 0 17 -17 18 -21 0 -21 1
-2 9 13 5 24 3 31 -6 6 -8 15 -14 19 -14 5 0 0 9 -9 19 -10 11 -24 17 -32 14
-8 -3 -14 0 -14 7 0 6 -35 48 -78 93 -76 81 -148 167 -139 167 3 0 31 -32 63
-72z m-3025 -358 c11 -71 54 -249 85 -354 21 -74 10 -66 -24 16 -62 150 -92
299 -97 483 l-4 150 14 -110 c7 -60 19 -144 26 -185z m-257 165 c4 -33 15
-100 25 -148 l19 -89 -37 7 c-89 16 -113 26 -105 43 4 9 16 49 27 87 25 83 24
82 39 67 7 -7 16 -12 21 -12 5 0 -1 8 -14 18 -21 18 -22 21 -9 66 16 57 25 46
34 -39z m3176 -12 c39 -44 99 -83 126 -83 8 0 17 -7 20 -15 4 -8 10 -12 15 -9
5 2 17 0 28 -6 13 -7 22 -7 26 0 3 5 11 10 17 10 7 0 7 -5 -1 -14 -9 -11 -7
-15 9 -19 11 -3 18 -1 14 4 -3 5 2 6 10 3 9 -3 16 -11 16 -18 0 -7 17 -11 44
-11 43 1 44 1 28 -21 -21 -27 -50 -20 -178 41 -99 48 -171 106 -222 181 -19
27 -24 38 -12 24 12 -14 39 -44 60 -67z m-3843 45 c-3 -8 -6 -5 -6 6 -1 11 2
17 5 13 3 -3 4 -12 1 -19z m-28 -89 c-46 -141 -185 -307 -304 -364 -85 -40
-113 -31 -34 11 131 70 261 214 325 362 15 34 28 61 30 59 2 -2 -5 -33 -17
-68z m2016 -114 c13 -100 13 -109 -3 -121 -23 -18 -35 -17 -28 2 3 9 6 66 6
126 0 61 2 109 5 106 3 -3 12 -54 20 -113z m2340 42 c16 -15 -48 20 -70 38
-11 9 -2 7 20 -6 22 -12 45 -26 50 -32z m-300 25 c-3 -3 -11 0 -18 7 -9 10 -8
11 6 5 10 -3 15 -9 12 -12z m385 -62 c8 -5 11 -10 5 -10 -5 0 -17 5 -25 10 -8
5 -10 10 -5 10 6 0 17 -5 25 -10z m-137 -27 c-7 -2 -19 -2 -25 0 -7 3 -2 5 12
5 14 0 19 -2 13 -5z m-3636 -65 c32 -12 63 -26 69 -32 6 -6 31 -63 54 -126 44
-118 98 -230 113 -230 13 0 26 46 33 124 4 42 10 76 13 76 4 0 22 -36 40 -80
44 -109 102 -172 206 -222 71 -34 80 -37 83 -21 7 34 19 33 56 -2 48 -45 60
-45 52 3 -12 64 -16 543 -5 497 40 -160 57 -220 106 -369 31 -93 65 -178 75
-188 25 -25 92 -23 161 3 47 18 57 27 73 62 27 63 59 102 98 121 25 12 36 24
36 39 0 17 2 19 10 7 15 -24 27 23 35 143 6 93 10 109 28 122 12 8 24 15 28
15 6 0 32 -119 48 -225 14 -90 9 -125 -25 -153 -27 -24 -28 -24 -4 -17 14 4
44 19 67 32 23 14 47 22 53 18 12 -7 80 4 80 14 0 4 -18 5 -40 3 -22 -2 -40 0
-40 5 0 5 17 32 38 60 20 28 42 59 49 70 12 20 12 21 32 -54 12 -42 13 -43 54
-43 94 1 249 28 268 47 18 18 53 118 68 193 8 41 13 35 36 -44 20 -71 75 -184
101 -208 11 -9 31 -21 45 -27 21 -7 28 -18 31 -46 4 -31 1 -39 -19 -48 -19 -8
-44 -4 -126 22 -75 25 -127 35 -197 38 -89 5 -109 2 -315 -48 -121 -29 -240
-55 -265 -59 -42 -6 -43 -7 -17 -14 15 -5 27 -12 27 -16 0 -5 -22 -26 -50 -47
-27 -21 -49 -41 -50 -44 0 -4 19 0 43 7 97 31 207 61 207 57 0 -2 -6 -16 -14
-31 -7 -15 -16 -58 -20 -97 l-7 -70 24 28 c26 31 43 34 69 10 10 -9 18 -11 18
-5 0 6 -5 14 -11 18 -7 4 -8 9 0 17 7 7 6 18 -4 37 -8 15 -13 29 -12 31 1 2
-3 -2 -10 -10 -10 -11 -13 -9 -19 14 -12 49 16 61 160 70 141 8 307 -2 331
-19 17 -12 35 -73 34 -116 0 -24 0 -24 -14 -6 -13 17 -15 17 -15 4 0 -9 5 -20
10 -23 6 -3 10 -14 10 -23 0 -15 -2 -15 -10 -2 -5 8 -10 10 -10 5 0 -6 4 -15
10 -21 9 -9 -8 -113 -28 -165 -6 -15 -8 -30 -5 -33 18 -17 34 1 55 62 19 56
23 87 23 193 l0 126 43 -14 c23 -8 47 -24 53 -35 11 -21 7 -182 -5 -228 -7
-24 -7 -25 9 -5 9 11 34 55 55 97 21 43 41 75 43 70 2 -4 0 -63 -5 -132 l-8
-125 -48 -48 c-56 -57 -162 -129 -214 -146 -21 -7 -38 -16 -38 -21 0 -13 133
-40 201 -40 l61 0 -6 -42 c-3 -24 -10 -84 -15 -135 -5 -50 -14 -101 -20 -112
-46 -85 -374 -442 -479 -520 -230 -173 -541 -289 -885 -331 -115 -15 -119 -13
-317 85 -319 159 -465 251 -588 369 -104 100 -162 177 -217 286 -50 100 -68
154 -94 273 -21 103 -34 99 112 38 54 -23 101 -41 104 -41 2 0 -14 23 -36 51
-50 63 -54 82 -13 60 28 -14 72 -22 72 -13 0 5 -25 26 -56 47 -83 57 -167 155
-217 253 -70 136 -136 359 -114 381 13 13 37 15 37 2 0 -12 138 -217 157 -232
10 -9 6 4 -11 32 -30 53 -49 146 -40 202 4 27 13 41 32 51 42 21 131 37 168
30 l34 -6 0 -119 c0 -65 4 -120 10 -124 5 -3 16 8 25 25 19 37 37 38 61 3 10
-16 19 -22 21 -16 3 7 -12 26 -31 44 -20 17 -34 35 -31 39 3 5 1 11 -4 14 -5
4 -11 -4 -13 -16 -2 -13 -8 9 -12 49 -4 39 -5 77 -1 82 9 15 63 14 152 -5 89
-18 215 -62 225 -78 4 -6 8 -7 8 -2 0 5 7 3 15 -4 8 -7 15 -20 15 -29 -1 -11
-5 -9 -14 8 -9 17 -15 20 -21 11 -4 -6 -2 -17 4 -23 6 -6 11 -24 11 -40 0 -19
9 -38 26 -54 24 -22 26 -28 26 -134 0 -96 3 -110 17 -107 13 3 15 16 13 78 -4
88 -19 218 -32 275 -5 22 -8 41 -6 42 1 2 28 -13 59 -31 67 -41 63 -20 -7 38
-51 41 -57 61 -23 72 17 6 8 11 -48 24 -38 10 -97 27 -130 39 -169 61 -359 96
-467 85 -40 -4 -65 -11 -62 -16 11 -18 -19 -28 -83 -28 -67 0 -77 -8 -41 -32
l23 -15 -20 -37 c-41 -76 -59 -72 -69 15 -7 54 -6 58 21 76 15 10 46 27 69 37
40 17 74 64 74 101 0 24 17 17 40 -15 12 -16 25 -30 29 -30 5 0 14 20 20 45
13 51 26 58 34 18 3 -16 12 -37 20 -47 12 -17 19 -18 58 -8 25 6 61 18 80 26
34 14 37 19 48 78 21 117 45 198 57 198 7 0 38 -10 71 -22z m-1207 -146 c-32
-188 -43 -353 -38 -550 4 -172 3 -182 -9 -127 -41 188 -22 502 47 754 19 72
19 42 0 -77z m1355 75 c17 -42 67 -238 62 -243 -3 -4 -73 189 -94 259 -10 31
18 18 32 -16z m-802 -286 c-12 -19 -16 35 -12 149 l3 85 5 -115 c3 -63 5 -117
4 -119z m4387 200 c0 -16 -68 -132 -98 -166 -16 -20 -64 -105 -58 -105 3 0
-12 -36 -34 -80 -22 -45 -38 -85 -35 -90 6 -9 219 -141 311 -192 29 -15 56
-34 62 -41 19 -24 63 -109 59 -114 -3 -2 -54 31 -113 74 -60 43 -169 116 -241
163 -73 47 -133 90 -133 97 0 18 94 215 136 286 49 81 126 187 136 187 4 0 8
-9 8 -19z m88 -276 c22 -60 49 -133 61 -162 l20 -51 -119 61 c-66 34 -120 65
-120 69 0 9 112 200 115 196 1 -2 21 -52 43 -113z m-2141 -68 c3 -4 -14 -7
-38 -7 -30 0 -39 3 -30 9 16 10 57 8 68 -2z m553 -23 c0 -8 -4 -12 -10 -9 -5
3 -10 10 -10 16 0 5 5 9 10 9 6 0 10 -7 10 -16z m-3730 -138 c0 -2 -8 -10 -17
-17 -16 -13 -17 -12 -4 4 13 16 21 21 21 13z m769 -238 c23 -84 26 -108 13
-92 -5 5 -14 36 -21 69 -7 33 -15 71 -18 85 -13 56 7 10 26 -62z m4802 -205
c164 -234 370 -487 560 -688 184 -194 695 -833 951 -1188 87 -122 167 -254
223 -372 36 -76 47 -101 75 -170 7 -16 16 -37 20 -45 4 -8 17 -49 29 -90 12
-41 26 -85 32 -98 5 -13 9 -31 9 -42 0 -10 8 -32 17 -49 21 -35 11 -53 -14
-24 -10 11 -52 48 -93 84 -41 35 -118 102 -171 149 -52 47 -124 110 -159 140
-74 63 -172 153 -280 255 -41 39 -109 102 -150 141 -248 230 -378 357 -432
425 -26 32 -100 167 -179 325 -187 373 -319 689 -401 959 -22 72 -53 175 -70
230 -17 55 -36 112 -44 127 -14 26 -18 48 -10 48 2 0 41 -53 87 -117z m-4656
-7 c28 -25 96 -72 158 -110 52 -31 19 -30 -46 2 -65 32 -154 109 -177 153
l-13 24 24 -21 c13 -11 38 -33 54 -48z m-104 -203 c-12 -20 -14 -14 -5 12 4 9
9 14 11 11 3 -2 0 -13 -6 -23z m4654 -243 c23 -25 13 -55 -14 -41 -21 12 -34
38 -25 52 8 14 19 11 39 -11z m240 -215 c35 -87 62 -161 60 -163 -6 -6 -186
118 -191 133 -3 7 1 26 9 42 8 15 20 53 27 83 17 73 22 87 26 75 2 -5 33 -82
69 -170z m-2555 -317 c0 -7 -7 -42 -16 -78 -9 -36 -19 -105 -22 -155 l-7 -89
-75 -33 c-41 -17 -90 -32 -108 -32 -76 -2 -157 -62 -201 -150 -16 -31 -45
-105 -65 -165 -20 -60 -59 -159 -86 -221 -26 -61 -54 -130 -61 -153 -7 -23
-15 -42 -18 -42 -3 0 -30 51 -59 113 -46 95 -60 140 -94 296 -39 184 -57 234
-97 280 -16 18 -21 38 -21 76 l0 53 88 12 c108 15 328 69 447 110 99 34 290
125 345 164 40 29 50 31 50 14z m3802 -633 c3 3 11 -3 19 -12 12 -16 12 -17
-2 -6 -9 7 -18 11 -21 8 -3 -3 -13 5 -24 17 -19 23 -19 23 2 5 11 -9 23 -15
26 -12z m-5294 -30 c11 -23 7 -32 -34 -88 -25 -34 -52 -74 -60 -88 -39 -76
-98 -243 -119 -337 -27 -117 -60 -367 -70 -529 -5 -69 -12 -106 -21 -114 -8
-7 -18 -9 -22 -5 -14 15 -13 208 2 373 9 92 15 175 15 183 -2 27 -18 -64 -18
-107 -1 -24 -5 -43 -11 -43 -5 0 -23 26 -39 58 -16 32 -51 80 -77 106 -59 57
-172 116 -225 116 -21 0 -40 4 -43 8 -4 7 46 128 70 167 11 18 14 17 60 -13
73 -46 175 -92 206 -92 l28 0 2 162 3 162 29 7 c32 9 77 -6 126 -41 l29 -20
-25 -43 c-45 -79 -24 -61 27 23 46 76 133 180 150 180 3 0 11 -11 17 -25z
m5372 -57 c0 -5 -5 -6 -12 -2 -7 4 -8 3 -4 -5 4 -6 11 -9 16 -6 8 5 125 -143
155 -195 8 -13 7 -13 -8 -1 -9 7 -17 9 -17 3 0 -13 25 -33 32 -26 3 3 9 0 14
-7 4 -8 3 -10 -4 -5 -17 10 -15 -6 4 -32 8 -12 20 -20 25 -17 5 3 6 -2 2 -11
-4 -11 -2 -15 4 -11 6 4 18 -4 27 -18 20 -30 20 -34 0 -31 -8 1 -41 43 -73 92
-32 49 -84 125 -117 168 -32 43 -68 90 -79 105 -15 20 -16 23 -2 12 20 -16 23
-2 5 19 -7 8 -3 6 10 -4 12 -11 22 -23 22 -28z m-5512 -15 c-4 -22 -22 -20
-26 1 -2 10 3 16 13 16 10 0 15 -7 13 -17z m-1594 -85 c8 -24 25 -68 36 -98
11 -30 20 -60 20 -66 0 -17 -115 -94 -140 -94 -17 0 -21 4 -15 18 14 36 56
199 62 240 3 23 9 42 13 42 5 0 15 -19 24 -42z m4014 -82 c21 -11 31 -27 41
-65 15 -59 33 -65 79 -26 l30 25 14 -21 c13 -20 15 -21 52 -5 56 23 70 20 109
-23 42 -47 56 -72 87 -163 23 -67 23 -68 4 -89 -19 -22 -19 -22 1 -15 95 35
218 45 252 21 22 -15 43 -87 43 -148 l0 -31 -43 42 -42 41 -77 -19 c-244 -61
-658 -333 -783 -515 -21 -30 -40 -55 -42 -55 -2 0 -7 10 -12 23 -12 32 22 117
80 202 68 99 179 207 280 274 126 82 128 83 79 60 -82 -40 -188 -118 -265
-196 -41 -42 -75 -80 -75 -84 0 -3 -14 -24 -31 -45 l-31 -39 6 60 c3 33 10
116 16 185 23 253 87 497 155 586 29 38 35 40 73 20z m2612 -91 c30 -30 52
-55 49 -55 -2 0 -29 25 -59 55 -30 30 -52 55 -49 55 2 0 29 -25 59 -55z
m-2764 -22 c-50 -101 -85 -306 -101 -603 -6 -115 -34 -248 -47 -227 -21 33 -3
427 28 612 22 136 41 184 88 228 23 20 44 37 49 37 4 0 -3 -21 -17 -47z
m-3552 -15 c9 -12 16 -27 16 -32 0 -6 -7 0 -16 13 -11 15 -23 21 -36 18 -16
-4 -17 -3 -7 9 16 19 25 18 43 -8z m-66 -33 c0 -28 27 -75 44 -75 20 0 47 31
41 48 -4 10 -2 13 5 8 20 -12 14 -31 -18 -54 -16 -12 -31 -22 -34 -22 -12 0
-58 92 -52 105 8 22 14 18 14 -10z m7126 -49 c-1 -8 2 -13 6 -11 13 8 184
-338 225 -455 47 -136 105 -340 96 -340 -23 0 -54 57 -76 136 -37 134 -99 311
-133 379 -16 33 -47 98 -67 145 -21 47 -49 101 -62 120 -28 41 -29 49 -5 45 9
-1 16 -10 16 -19z m-8696 -36 c54 -39 68 -63 82 -138 8 -48 8 -72 -1 -100 -22
-69 -112 -243 -123 -239 -19 6 -65 81 -66 107 0 14 9 77 20 140 11 63 20 148
20 188 0 84 6 87 68 42z m2479 -31 c107 -53 216 -201 229 -312 4 -31 5 -57 2
-57 -3 0 -28 31 -57 69 -54 73 -112 122 -198 165 -43 21 -66 26 -128 26 -83 0
-131 -18 -174 -64 -28 -30 -41 -21 -41 30 0 35 34 71 113 121 88 56 169 63
254 22z m5673 6 c13 -14 21 -25 18 -25 -2 0 -15 11 -28 25 -13 14 -21 25 -18
25 2 0 15 -11 28 -25z m-251 -52 c32 -27 143 -105 247 -175 104 -69 227 -155
274 -189 47 -35 175 -127 285 -205 274 -195 249 -170 252 -245 2 -80 20 -231
33 -284 9 -40 14 -283 5 -274 -2 3 -5 19 -7 37 -2 24 -5 29 -15 20 -12 -10
-17 -4 -14 15 1 5 -3 5 -9 2 -6 -4 -9 -13 -6 -21 3 -8 1 -14 -4 -14 -6 0 -10
6 -10 14 0 8 -7 17 -16 20 -12 4 -15 2 -11 -9 4 -8 2 -17 -3 -20 -6 -4 -10 -2
-10 2 0 5 -9 9 -19 9 -11 0 -18 -3 -15 -7 2 -4 -5 -9 -17 -12 -17 -5 -18 -3
-7 10 12 15 11 15 -11 4 -15 -8 -21 -9 -17 -2 4 6 1 11 -7 11 -19 0 -70 56
-63 69 4 6 2 11 -3 11 -21 0 -122 123 -344 420 -80 107 -150 200 -154 205 -5
6 -30 39 -56 75 -27 36 -57 76 -68 90 -60 74 -143 190 -161 225 -17 32 -71
151 -115 253 -9 22 7 13 66 -35z m321 -8 c13 -14 21 -25 18 -25 -2 0 -15 11
-28 25 -13 14 -21 25 -18 25 2 0 15 -11 28 -25z m-6252 -94 c-5 -27 -37 -25
-49 3 -9 20 -9 29 2 42 12 15 15 14 31 -7 11 -12 17 -29 16 -38z m-1769 12
c49 -40 57 -139 25 -297 -12 -60 -13 -88 -5 -120 27 -109 30 -215 7 -251 -31
-47 -130 -26 -161 35 -28 53 -85 222 -85 250 0 30 9 54 79 210 27 58 56 124
66 148 20 46 39 53 74 25z m1987 -49 c-19 -16 -29 -36 -30 -55 -1 -16 -7 -31
-13 -34 -16 -5 -16 -6 -2 36 10 29 54 79 69 79 3 -1 -8 -12 -24 -26z m864 -54
c0 -5 -5 -10 -11 -10 -5 0 -7 5 -4 10 3 6 8 10 11 10 2 0 4 -4 4 -10z m4705
-16 c28 -18 31 -40 10 -68 -14 -19 -16 -19 -51 -3 -19 10 -34 21 -32 25 35 71
35 71 73 46z m-5791 -28 c14 -19 26 -39 26 -43 0 -10 -53 -63 -63 -63 -13 0
-68 60 -63 69 12 19 61 71 67 71 4 0 18 -15 33 -34z m389 -2 c33 -8 79 -25
101 -36 53 -27 155 -131 184 -188 22 -41 22 -43 3 -21 -12 13 -21 18 -21 12 0
-7 -36 18 -80 53 -97 79 -120 92 -207 112 -49 11 -90 14 -150 9 -46 -4 -83 -3
-83 1 1 5 10 20 21 33 33 40 132 51 232 25z m687 -14 c0 -10 -4 -21 -9 -24
-10 -7 -23 33 -15 46 8 13 24 -1 24 -22z m-2730 -10 c4 0 6 -10 3 -22 -9 -39
-55 -193 -60 -202 -9 -13 -23 17 -18 39 35 183 39 196 52 190 8 -3 18 -5 23
-5z m2720 -105 c0 -3 -9 -24 -19 -48 -11 -23 -34 -82 -52 -130 -29 -81 -44
-106 -55 -95 -2 3 7 36 19 74 13 38 22 74 20 81 -2 6 1 14 6 18 6 3 11 14 11
23 0 9 13 31 28 49 25 30 42 41 42 28z m4826 -25 l66 -30 -7 -37 c-12 -67 -42
-123 -65 -123 -27 0 -119 47 -126 64 -5 12 53 156 63 156 2 0 33 -13 69 -30z
m-1934 -10 c45 -13 82 -55 69 -78 -5 -9 -5 -26 0 -39 10 -26 -8 -32 -29 -10
-9 8 -54 12 -155 12 -135 -1 -146 -2 -229 -33 -110 -41 -425 -193 -457 -221
-25 -22 -41 -27 -41 -13 0 9 274 218 348 265 161 103 368 152 494 117z m-542
-54 c0 -2 -8 -10 -17 -17 -16 -13 -17 -12 -4 4 13 16 21 21 21 13z m3405 -58
c22 -23 31 -35 19 -25 -11 9 -24 14 -29 10 -4 -5 -5 -3 -1 4 4 7 -2 17 -14 23
-11 6 -20 15 -20 20 0 15 3 13 45 -32z m-3482 -9 c-6 -6 -9 -17 -7 -24 3 -6
-38 -46 -91 -88 -76 -61 -90 -69 -69 -41 26 33 163 164 174 164 2 0 -1 -5 -7
-11z m-3183 -3 c0 -2 -7 -9 -15 -16 -13 -11 -14 -10 -9 4 5 14 24 23 24 12z
m734 -18 c-10 -12 -34 -36 -53 -53 -19 -16 -43 -38 -53 -47 -10 -10 -18 -15
-18 -11 0 7 131 132 139 133 2 0 -4 -10 -15 -22z m6012 -40 l29 -33 -32 29
c-31 28 -38 36 -30 36 2 0 16 -15 33 -32z m-665 -40 l21 -29 -31 -158 c-18
-87 -33 -168 -34 -179 -2 -32 -13 -27 -43 18 l-26 39 37 152 c20 83 35 164 33
180 -4 23 -2 26 9 17 8 -6 23 -24 34 -40z m-2675 6 c-34 -19 -138 -55 -143
-51 -4 5 148 66 162 66 6 0 -3 -7 -19 -15z m3494 -104 l25 -20 -35 19 c-19 11
-53 39 -75 62 l-40 42 50 -41 c28 -23 61 -50 75 -62z m-3089 12 c64 -33 77
-59 63 -129 -8 -44 -13 -50 -57 -71 -26 -12 -52 -20 -57 -17 -13 8 -13 51 0
74 8 16 4 19 -28 25 -127 21 -437 -2 -557 -41 -72 -23 -207 -83 -227 -100 -38
-34 -53 23 -15 60 27 28 223 128 293 151 138 45 299 74 415 75 109 1 120 -1
170 -27z m-662 -36 c-3 -3 -42 -25 -87 -50 -81 -45 -126 -60 -87 -30 33 27
194 100 174 80z m3066 -134 c-8 -33 -15 -62 -15 -66 0 -3 23 -12 52 -21 65
-19 78 -9 49 37 l-22 33 28 -34 c15 -19 50 -60 76 -90 27 -31 53 -63 58 -73 8
-14 5 -14 -29 2 -20 10 -92 35 -159 56 -141 43 -134 32 -102 164 11 47 21 95
21 108 0 20 4 18 30 -17 l29 -40 -16 -59z m-5567 71 c-6 -16 -21 -51 -33 -79
-51 -112 -128 -335 -152 -434 -19 -82 -26 -139 -29 -255 -3 -158 5 -217 60
-450 14 -55 23 -102 21 -103 -7 -8 -56 168 -80 286 -55 275 -13 584 123 903
57 133 72 159 89 159 10 0 10 -6 1 -27z m3045 -38 c14 -6 17 -20 17 -85 0 -44
-4 -81 -9 -84 -5 -3 -28 -38 -51 -77 -38 -65 -44 -71 -69 -65 -14 3 -66 15
-115 26 -89 20 -124 24 -115 15 3 -2 52 -13 109 -25 135 -26 141 -32 107 -107
-14 -32 -33 -83 -43 -113 -9 -30 -18 -56 -19 -58 -1 -1 -53 7 -116 18 -63 11
-143 20 -179 19 -101 0 -261 -24 -271 -40 -7 -11 -12 -67 -8 -95 1 -8 -22 -24
-33 -24 -12 0 -9 61 6 118 12 49 12 53 -5 63 -16 8 -19 22 -19 80 0 71 15 124
42 147 11 9 14 25 10 60 -3 41 0 52 22 79 42 49 231 123 381 149 81 14 323 13
358 -1z m-2932 -43 c-10 -20 -37 -111 -59 -202 -39 -158 -60 -228 -61 -204 -2
21 88 383 104 420 8 19 19 33 25 29 6 -4 3 -20 -9 -43z m892 2 c3 -4 0 -16 -8
-28 -8 -11 -15 -27 -15 -35 0 -7 -24 -44 -53 -80 -92 -113 -104 -139 -28 -58
40 42 76 77 80 77 7 0 57 -106 78 -168 9 -24 18 -41 21 -38 5 6 -10 67 -34
144 -18 56 -18 67 3 47 20 -21 93 -229 93 -267 0 -35 -16 -44 -30 -18 -22 41
-52 25 -119 -66 -35 -47 -69 -88 -77 -91 -9 -3 -14 -21 -14 -54 0 -69 25 -67
82 8 24 31 58 72 77 92 l33 36 -23 -35 c-49 -75 -131 -168 -151 -173 -27 -8
-42 5 -74 60 -75 127 -111 261 -84 311 5 9 17 35 27 57 28 65 122 217 156 253
30 31 47 39 60 26z m-1383 -111 c18 -8 -3 -10 -80 -9 -128 1 -205 -7 -255 -28
-21 -9 -40 -14 -42 -12 -7 7 61 54 87 59 40 9 262 0 290 -10z m5991 -119 c107
-35 209 -67 227 -70 21 -4 46 -22 72 -52 47 -53 50 -65 13 -51 -16 6 -64 20
-108 30 -44 11 -137 38 -207 60 l-127 40 -41 56 c-22 31 -40 61 -40 67 0 6 4
5 9 -2 4 -7 95 -42 202 -78z m-2536 39 c4 -21 15 -81 26 -133 35 -177 35 -205
0 -295 -44 -110 -124 -268 -135 -267 -21 2 -78 278 -78 376 0 47 150 356 173
356 4 0 11 -17 14 -37z m-2549 -44 c83 -14 214 -59 220 -74 3 -7 -2 -29 -10
-50 -12 -27 -20 -35 -33 -31 -82 24 -268 66 -296 66 -53 0 -69 17 -56 63 10
37 10 37 63 37 29 0 79 -5 112 -11z m5308 -24 c9 -14 15 -25 13 -25 -2 0 -14
11 -27 25 -13 14 -19 25 -13 25 6 0 18 -11 27 -25z m-9314 -191 c-18 -21 -24
-10 -9 18 8 14 14 18 17 10 2 -7 -2 -19 -8 -28z m710 21 c0 -8 -4 -15 -8 -15
-5 0 -9 7 -9 15 0 8 4 15 9 15 4 0 8 -7 8 -15z m-570 -25 c-8 -5 -17 -6 -20
-3 -3 3 1 8 8 10 6 3 9 10 6 16 -4 7 -1 7 7 -1 12 -11 12 -14 -1 -22z m374 22
c2 -4 -4 -9 -15 -9 -11 -1 -17 2 -14 8 7 11 22 12 29 1z m428 -14 c-7 -7 -12
-8 -12 -2 0 6 3 14 7 17 3 4 9 5 12 2 2 -3 -1 -11 -7 -17z m49 4 c-7 -2 -18 1
-23 6 -8 8 -4 9 13 5 13 -4 18 -8 10 -11z m-221 -6 c0 -2 -7 -9 -15 -16 -13
-11 -14 -10 -9 4 5 14 24 23 24 12z m154 -12 c3 -8 2 -12 -4 -9 -6 3 -10 10
-10 16 0 14 7 11 14 -7z m-359 -4 c3 -5 1 -10 -4 -10 -6 0 -11 5 -11 10 0 6 2
10 4 10 3 0 8 -4 11 -10z m4925 -41 c0 -10 -4 -19 -10 -19 -5 0 -10 12 -10 26
0 14 4 23 10 19 6 -3 10 -15 10 -26z m-2863 -91 c-3 -8 -6 -5 -6 6 -1 11 2 17
5 13 3 -3 4 -12 1 -19z m-12 -60 c-5 -36 -1 -54 28 -111 18 -37 36 -65 39 -62
2 3 13 -14 23 -37 10 -24 26 -61 36 -83 9 -22 29 -53 43 -70 36 -41 33 -55 -4
-20 -17 16 -64 97 -106 184 -69 142 -75 159 -69 198 3 24 8 43 11 43 3 0 2
-19 -1 -42z m3351 -29 c4 -7 -10 -10 -41 -8 -32 2 -49 -1 -56 -11 -8 -12 -12
-12 -16 -2 -4 10 -10 9 -25 -4 -15 -15 -21 -16 -27 -5 -5 8 -14 10 -20 7 -6
-4 -11 -1 -11 6 -1 35 -19 -25 -30 -102 -6 -47 -14 -94 -17 -104 -4 -14 -1
-18 10 -13 11 4 14 2 10 -9 -4 -10 0 -13 13 -8 17 6 17 5 -1 -9 -17 -14 -18
-16 -3 -17 25 0 29 -14 12 -36 -14 -17 -15 -17 -10 -1 3 9 1 17 -4 17 -6 0
-10 -13 -10 -30 0 -16 -4 -30 -10 -30 -5 0 -7 -7 -3 -15 3 -10 0 -15 -8 -13
-11 2 -14 -11 -15 -54 -1 -31 -5 -69 -10 -85 -4 -15 -9 -35 -10 -43 -1 -8 -5
-31 -9 -50 -4 -19 -10 -82 -15 -140 l-7 -105 -1 85 c-3 184 46 689 73 755 l12
30 111 2 c69 2 114 -2 118 -8z m-61 -29 c3 -5 2 -10 -4 -10 -5 0 -13 5 -16 10
-3 6 -2 10 4 10 5 0 13 -4 16 -10z m-1524 -13 c13 -10 19 -43 28 -142 14 -166
43 -335 86 -503 19 -72 35 -142 35 -155 0 -13 23 -58 50 -102 28 -44 50 -83
50 -87 0 -12 -17 -10 -40 4 -16 11 -22 9 -34 -7 -12 -16 -18 -18 -34 -8 -11 6
-24 8 -32 3 -23 -14 -28 -3 -19 42 5 24 12 57 15 73 3 18 0 42 -10 60 -11 22
-12 31 -3 37 6 4 9 8 7 10 -3 2 -14 8 -25 14 -13 7 -20 22 -20 40 -1 16 -13
69 -29 119 -15 49 -37 134 -47 190 -21 105 -40 353 -32 398 6 29 27 35 54 14z
m1469 3 c0 -5 -4 -10 -10 -10 -5 0 -10 5 -10 10 0 6 5 10 10 10 6 0 10 -4 10
-10z m3915 -80 c10 -11 16 -20 13 -20 -3 0 -13 9 -23 20 -10 11 -16 20 -13 20
3 0 13 -9 23 -20z m-6997 -50 c6 -37 -31 -21 -39 18 -6 32 -6 32 15 19 11 -8
22 -24 24 -37z m3042 -74 c0 -2 -7 -7 -16 -10 -8 -3 -12 -2 -9 4 6 10 25 14
25 6z m-4103 -88 c-3 -8 -6 -5 -6 6 -1 11 2 17 5 13 3 -3 4 -12 1 -19z m4063
-33 c0 -8 -4 -15 -10 -15 -5 0 -7 7 -4 15 4 8 8 15 10 15 2 0 4 -7 4 -15z
m2920 -86 c0 -6 -4 -7 -10 -4 -5 3 -10 11 -10 16 0 6 5 7 10 4 6 -3 10 -11 10
-16z m-526 -75 c3 -8 2 -12 -4 -9 -6 3 -10 10 -10 16 0 14 7 11 14 -7z m-6533
-24 c6 0 9 -19 7 -42 -3 -40 -5 -43 -35 -46 -32 -3 -33 -2 -33 35 0 42 16 67
38 58 8 -3 18 -5 23 -5z m1796 -232 c-3 -8 -6 -5 -6 6 -1 11 2 17 5 13 3 -3 4
-12 1 -19z m-719 -82 c2 -10 -1 -23 -7 -29 -14 -14 -41 9 -41 35 0 26 43 21
48 -6z m5087 -74 c-3 -3 -11 0 -18 7 -9 10 -8 11 6 5 10 -3 15 -9 12 -12z
m-4297 -48 c15 -33 8 -30 -18 6 -14 20 -16 28 -7 24 8 -3 19 -16 25 -30z
m4204 4 c-7 -7 -12 -8 -12 -2 0 14 12 26 19 19 2 -3 -1 -11 -7 -17z m-2030
-103 c1 -74 4 -90 22 -106 20 -19 20 -19 -12 -8 -37 13 -51 47 -33 85 6 14 11
48 11 76 0 28 3 49 6 46 3 -4 6 -45 6 -93z m-2145 -32 c-3 -10 -5 -2 -5 17 0
19 2 27 5 18 2 -10 2 -26 0 -35z m4143 21 c0 -8 -4 -12 -10 -9 -5 3 -10 10
-10 16 0 5 5 9 10 9 6 0 10 -7 10 -16z m-2854 -112 c-12 -11 -18 7 -10 30 l8
23 4 -23 c2 -13 1 -26 -2 -30z m882 -26 c29 -8 74 -27 100 -42 80 -47 192
-163 192 -200 0 -4 -25 20 -55 54 -60 65 -140 119 -220 149 -42 15 -79 18
-220 17 -161 -1 -216 -5 -530 -39 -71 -7 -157 -13 -190 -13 -57 0 -55 1 35 14
52 7 133 18 180 25 144 21 440 46 550 48 62 0 126 -5 158 -13z m-938 -16 c0
-5 -12 -12 -27 -16 -16 -3 -34 -8 -41 -10 -8 -2 -12 1 -10 8 7 20 78 36 78 18z
m-2825 -56 c0 -24 -5 -30 -27 -32 -26 -3 -28 -1 -28 31 0 41 6 48 33 38 16 -6
22 -17 22 -37z m4510 -258 c20 -37 34 -70 32 -72 -5 -5 -77 123 -77 137 0 18
4 12 45 -65z m-4125 54 c0 -5 -2 -10 -4 -10 -3 0 -8 5 -11 10 -3 6 -1 10 4 10
6 0 11 -4 11 -10z m21 -23 c-10 -9 -11 -8 -5 6 3 10 9 15 12 12 3 -3 0 -11 -7
-18z"/>
<path d="M3878 8477 c-18 -18 -62 -47 -98 -65 -69 -34 -117 -69 -107 -78 3 -3
62 -8 130 -11 l124 -6 6 24 c4 13 7 57 7 97 0 84 -10 91 -62 39z"/>
<path d="M4144 8556 c-3 -8 -4 -25 -2 -38 2 -19 9 -23 38 -23 33 0 35 2 35 35
0 32 -3 35 -33 38 -21 2 -34 -2 -38 -12z"/>
<path d="M2814 7418 c-4 -7 -15 -24 -23 -38 -15 -23 -13 -23 16 4 18 17 30 33
27 38 -7 11 -12 10 -20 -4z"/>
<path d="M2855 7410 c-3 -5 -1 -10 4 -10 6 0 11 5 11 10 0 6 -2 10 -4 10 -3 0
-8 -4 -11 -10z"/>
<path d="M7361 7543 c0 -12 -4 -28 -7 -37 -7 -18 4 -20 26 -6 11 7 12 12 4 18
-7 4 -14 16 -17 27 -4 19 -5 19 -6 -2z"/>
<path d="M7381 7458 c11 -21 32 -20 37 3 1 9 -7 15 -23 15 -21 2 -23 -1 -14
-18z"/>
<path d="M7427 7440 c-9 -11 -15 -20 -12 -20 2 0 0 -12 -5 -27 -9 -26 -9 -27
5 -9 14 19 15 18 24 -5 8 -20 10 -15 10 29 1 28 0 52 -2 52 -1 0 -10 -9 -20
-20z"/>
<path d="M7474 7235 c24 -40 54 -65 77 -65 11 0 22 -7 25 -15 4 -8 10 -13 14
-10 12 7 41 -6 35 -15 -8 -12 18 -18 40 -9 19 8 19 8 -2 15 -13 3 -23 10 -23
14 0 8 -68 45 -85 45 -5 0 -16 4 -22 8 -7 5 -18 5 -25 1 -6 -4 -8 -3 -5 2 7
12 -1 24 -28 44 -19 15 -19 15 -1 -15z"/>
<path d="M7700 7100 c-9 -6 -10 -10 -3 -10 6 0 15 5 18 10 8 12 4 12 -15 0z"/>
<path d="M4125 6190 c17 -11 35 -20 40 -20 6 0 21 -6 35 -13 14 -7 34 -16 44
-20 19 -8 19 -7 1 13 -10 11 -23 20 -29 20 -6 0 -22 9 -36 20 -14 11 -38 20
-55 20 l-30 0 30 -20z"/>
<path d="M3881 6006 c-13 -15 1 -32 18 -22 5 4 11 1 13 -6 3 -7 11 -9 24 -3
10 4 22 8 26 7 4 -1 5 5 1 14 -3 8 -12 13 -19 10 -7 -3 -16 -1 -19 4 -9 14
-31 12 -44 -4z"/>
<path d="M4050 5801 c-11 -23 -19 -41 -16 -41 7 0 47 72 42 77 -2 3 -14 -13
-26 -36z"/>
<path d="M5970 5830 c0 -5 5 -10 10 -10 6 0 10 5 10 10 0 6 -4 10 -10 10 -5 0
-10 -4 -10 -10z"/>
<path d="M4130 5824 c0 -6 17 -26 38 -45 l37 -34 -35 40 c-19 22 -36 42 -37
44 -2 2 -3 0 -3 -5z"/>
<path d="M3926 5740 c-20 -35 -41 -38 -56 -10 -6 11 -17 20 -24 20 -19 0 33
-147 75 -211 60 -94 175 -169 241 -156 18 3 16 5 -8 6 -16 0 -53 13 -82 27
-56 28 -98 78 -152 182 -36 68 -35 76 12 134 12 15 19 30 17 33 -3 2 -13 -9
-23 -25z"/>
<path d="M4211 5723 c7 -12 15 -20 18 -17 3 2 -3 12 -13 22 -17 16 -18 16 -5
-5z"/>
<path d="M4107 5701 c-5 -22 1 -33 14 -25 12 7 12 44 0 44 -5 0 -11 -9 -14
-19z"/>
<path d="M5465 5643 c9 -114 23 -168 56 -213 27 -38 105 -88 117 -76 3 3 0 6
-6 6 -7 0 -29 16 -51 35 -53 48 -68 92 -87 265 -5 45 -11 60 -25 60 -7 0 -9
-23 -4 -77z"/>
<path d="M5710 5685 c-11 -13 -10 -19 5 -35 17 -19 20 -19 34 -5 12 11 13 20
5 32 -15 24 -29 26 -44 8z m36 -24 c-4 -5 -13 -8 -22 -4 -11 4 -12 8 -3 20 14
16 36 2 25 -16z"/>
<path d="M4080 5598 c41 -45 50 -53 50 -45 0 2 -21 23 -47 47 l-48 45 45 -47z"/>
<path d="M5940 5511 c0 -48 -84 -130 -157 -157 -34 -12 -35 -13 -12 -14 44 0
199 115 199 149 0 4 -7 16 -15 27 -14 18 -14 18 -15 -5z"/>
<path d="M4276 5482 c-8 -16 -31 -43 -51 -61 -41 -36 -33 -41 14 -8 39 26 76
82 62 91 -6 4 -17 -6 -25 -22z"/>
<path d="M4680 4610 c-26 -16 -3 -22 27 -6 23 13 24 15 8 15 -11 1 -27 -3 -35
-9z"/>
<path d="M4790 4616 c0 -7 121 -47 133 -43 7 2 -14 13 -46 25 -53 20 -87 27
-87 18z"/>
<path d="M7606 5879 c4 -8 -1 -9 -15 -4 -35 11 -24 0 38 -39 35 -21 66 -34 75
-30 18 7 11 26 -7 22 -7 -1 -23 2 -36 6 -19 6 -21 10 -10 18 11 7 9 9 -6 7
-32 -2 -41 1 -27 10 11 7 10 9 -3 14 -10 4 -14 3 -9 -4z"/>
<path d="M7711 5801 c-10 -6 -2 -16 30 -38 24 -17 54 -35 66 -42 l23 -12 -18
33 c-10 17 -31 40 -48 49 -35 21 -35 21 -53 10z"/>
<path d="M7787 6019 c4 -12 14 -24 24 -26 11 -3 17 -8 15 -12 -3 -4 5 -8 17
-8 18 -2 17 1 -8 17 -18 12 -24 20 -15 20 11 1 10 4 -4 15 -27 21 -35 19 -29
-6z"/>
<path d="M3905 3315 c-10 -47 -15 -88 -12 -91 3 -3 9 11 12 32 3 22 11 61 17
87 6 26 8 50 5 53 -2 2 -12 -34 -22 -81z"/>
<path d="M9610 3650 c17 -22 34 -40 37 -40 2 0 -10 18 -27 40 -17 22 -34 40
-37 40 -2 0 10 -18 27 -40z"/>
<path d="M9650 3596 c0 -2 8 -10 18 -17 15 -13 16 -12 3 4 -13 16 -21 21 -21
13z"/>
<path d="M9680 3551 c0 -5 5 -13 10 -16 6 -3 10 -2 10 4 0 5 -4 13 -10 16 -5
3 -10 2 -10 -4z"/>
<path d="M9780 3401 c0 -6 4 -13 10 -16 6 -3 7 1 4 9 -7 18 -14 21 -14 7z"/>
<path d="M8931 2779 c-17 -48 -13 -65 14 -77 14 -7 30 -12 35 -12 9 0 40 63
40 81 0 7 -62 39 -75 39 -2 0 -8 -14 -14 -31z"/>
<path d="M6293 2113 c26 -2 67 -2 90 0 23 2 2 3 -48 3 -49 0 -68 -1 -42 -3z"/>
<path d="M4886 2075 c-3 -9 -6 -27 -6 -39 0 -12 -7 -31 -15 -42 -19 -25 -19
-31 5 -37 31 -8 25 -48 -16 -101 -21 -25 -35 -48 -33 -51 6 -5 91 103 105 134
12 25 6 60 -20 122 -10 25 -14 28 -20 14z"/>
<path d="M6940 1955 c-23 -41 -40 -80 -38 -86 2 -6 23 26 46 71 24 45 41 84
39 87 -3 2 -24 -30 -47 -72z"/>
<path d="M6831 1846 c-13 -8 -19 -16 -13 -20 5 -3 13 -37 17 -76 10 -96 25
-99 25 -5 0 65 2 76 15 71 21 -8 19 21 -3 33 -11 6 -25 5 -41 -3z"/>
<path d="M5425 9595 c65 -82 256 -305 262 -305 4 0 -1 8 -9 18 -220 262 -338
396 -253 287z"/>
<path d="M5725 9590 c26 -27 45 -31 45 -10 0 9 -52 40 -66 40 -4 0 5 -13 21
-30z"/>
<path d="M6224 9352 c3 -5 81 -46 173 -92 93 -45 194 -97 226 -116 74 -43 82
-43 32 1 -22 20 -101 65 -175 102 -74 36 -143 70 -152 74 -10 5 -25 9 -33 9
-9 0 -30 7 -47 16 -16 9 -28 11 -24 6z"/>
<path d="M6234 9277 c16 -20 30 -37 33 -37 7 0 -36 58 -49 66 -7 4 1 -9 16
-29z"/>
<path d="M6805 9300 c5 -8 44 -56 87 -107 43 -51 103 -126 133 -167 30 -41 60
-78 66 -82 27 -16 -240 326 -277 357 -16 12 -17 12 -9 -1z"/>
<path d="M5970 9276 c0 -2 8 -10 18 -17 15 -13 16 -12 3 4 -13 16 -21 21 -21
13z"/>
<path d="M5730 9236 c0 -2 8 -10 18 -17 15 -13 16 -12 3 4 -13 16 -21 21 -21
13z"/>
<path d="M6020 9215 c13 -14 26 -25 28 -25 3 0 -5 11 -18 25 -13 14 -26 25
-28 25 -3 0 5 -11 18 -25z"/>
<path d="M5795 9160 c10 -11 20 -20 23 -20 3 0 -3 9 -13 20 -10 11 -20 20 -23
20 -3 0 3 -9 13 -20z"/>
<path d="M6140 9087 c77 -80 158 -138 192 -136 7 0 -11 11 -41 25 -34 15 -86
55 -145 111 l-91 88 85 -88z"/>
<path d="M6379 8935 c42 -19 50 -19 25 0 -10 8 -28 14 -39 14 -14 0 -10 -4 14
-14z"/>
<path d="M6520 8871 c74 -39 301 -134 306 -129 2 3 -47 26 -109 52 -61 27
-140 61 -173 77 -79 37 -96 37 -24 0z"/>
<path d="M6830 8796 c0 -2 8 -10 18 -17 15 -13 16 -12 3 4 -13 16 -21 21 -21
13z"/>
<path d="M6885 8720 c62 -25 70 -25 25 0 -19 11 -44 19 -55 19 -11 0 3 -9 30
-19z"/>
<path d="M6960 8690 c8 -5 20 -10 25 -10 6 0 3 5 -5 10 -8 5 -19 10 -25 10 -5
0 -3 -5 5 -10z"/>
<path d="M7501 8696 c2 -2 15 -9 29 -15 24 -11 24 -11 6 3 -16 13 -49 24 -35
12z"/>
<path d="M7062 8662 c-9 -6 -5 -12 13 -20 33 -15 35 -15 35 2 0 8 -7 17 -16
20 -19 7 -16 7 -32 -2z"/>
<path d="M7560 8666 c0 -2 7 -7 16 -10 8 -3 12 -2 9 4 -6 10 -25 14 -25 6z"/>
<path d="M7684 8600 c50 -28 98 -58 108 -67 10 -9 18 -12 18 -7 0 11 -76 62
-147 98 -87 43 -74 29 21 -24z"/>
<path d="M7220 8636 c0 -3 24 -17 53 -32 28 -14 77 -41 107 -59 30 -18 73 -36
95 -39 l40 -7 -30 17 c-16 9 -36 17 -43 18 -7 1 -21 9 -30 17 -34 29 -110 68
-142 74 -18 3 -37 8 -42 11 -4 3 -8 3 -8 0z"/>
<path d="M7850 8468 c18 -27 35 -48 37 -48 8 0 -33 62 -51 78 -11 9 -5 -4 14
-30z"/>
<path d="M7054 8440 c24 -12 48 -17 60 -14 20 7 20 7 -3 15 -12 5 -27 7 -32 3
-5 -3 -9 -1 -9 3 0 5 -12 9 -27 10 -26 2 -24 1 11 -17z"/>
<path d="M7911 8380 c29 -45 29 -45 29 -34 0 5 -12 23 -26 39 l-26 30 23 -35z"/>
<path d="M7650 8386 c0 -2 8 -10 18 -17 15 -13 16 -12 3 4 -13 16 -21 21 -21
13z"/>
<path d="M8030 8214 c0 -10 109 -174 116 -174 3 0 0 10 -8 23 -8 12 -34 52
-57 90 -40 62 -51 76 -51 61z"/>
<path d="M7360 8146 c0 -2 7 -7 16 -10 8 -3 12 -2 9 4 -6 10 -25 14 -25 6z"/>
<path d="M7451 8096 c2 -2 15 -9 29 -15 24 -11 24 -11 6 3 -16 13 -49 24 -35
12z"/>
<path d="M8156 8020 c4 -8 87 -134 184 -280 97 -146 191 -287 208 -315 17 -27
32 -47 32 -42 0 4 -22 44 -50 88 -27 44 -50 83 -50 85 0 5 -52 86 -60 94 -3 3
-37 53 -77 112 -128 191 -212 306 -187 258z"/>
<path d="M8044 7816 c11 -9 24 -16 30 -16 12 0 7 5 -24 19 -24 11 -24 11 -6
-3z"/>
<path d="M7617 7789 c7 -7 15 -10 18 -7 3 3 -2 9 -12 12 -14 6 -15 5 -6 -5z"/>
<path d="M8160 7530 c8 -5 20 -10 25 -10 6 0 3 5 -5 10 -8 5 -19 10 -25 10 -5
0 -3 -5 5 -10z"/>
<path d="M8200 7518 c0 -9 290 -132 296 -125 3 2 -58 30 -133 62 -170 71 -163
68 -163 63z"/>
<path d="M2234 5369 c-38 -38 -77 -85 -87 -102 l-19 -32 32 35 c82 90 151 170
147 170 -3 0 -36 -32 -73 -71z"/>
<path d="M1620 5306 c0 -2 8 -10 18 -17 15 -13 16 -12 3 4 -13 16 -21 21 -21
13z"/>
<path d="M1650 5266 c0 -2 8 -10 18 -17 15 -13 16 -12 3 4 -13 16 -21 21 -21
13z"/>
<path d="M1705 5200 c10 -11 20 -20 23 -20 3 0 -3 9 -13 20 -10 11 -20 20 -23
20 -3 0 3 -9 13 -20z"/>
<path d="M1367 5179 c7 -7 15 -10 18 -7 3 3 -2 9 -12 12 -14 6 -15 5 -6 -5z"/>
<path d="M2040 5120 c-12 -16 -19 -30 -16 -30 2 0 14 14 26 30 12 17 19 30 16
30 -2 0 -14 -13 -26 -30z"/>
<path d="M1501 5093 c0 -5 7 -24 15 -43 9 -22 12 -26 9 -10 -2 14 -5 33 -5 43
0 9 -4 17 -10 17 -5 0 -10 -3 -9 -7z"/>
<path d="M1983 5038 c-46 -60 -66 -91 -56 -84 13 7 77 96 70 96 -3 0 -9 -6
-14 -12z"/>
<path d="M1531 4984 c0 -11 3 -14 6 -6 3 7 2 16 -1 19 -3 4 -6 -2 -5 -13z"/>
<path d="M1541 4944 c0 -11 3 -14 6 -6 3 7 2 16 -1 19 -3 4 -6 -2 -5 -13z"/>
<path d="M1125 4920 c27 -12 43 -12 25 0 -8 5 -22 9 -30 9 -10 0 -8 -3 5 -9z"/>
<path d="M1195 4895 c41 -19 67 -19 31 0 -15 8 -36 15 -45 14 -9 0 -3 -6 14
-14z"/>
<path d="M1295 4861 c22 -10 58 -21 80 -24 l40 -7 -40 15 c-22 9 -47 18 -55
22 -8 3 -26 7 -40 9 -18 2 -14 -2 15 -15z"/>
<path d="M1471 4805 c9 -8 79 -35 79 -30 0 2 -16 12 -36 20 -37 15 -51 19 -43
10z"/>
<path d="M2305 4780 c212 -102 296 -131 183 -63 -69 42 -133 68 -183 76 l-40
7 40 -20z"/>
<path d="M2460 4577 c-14 -12 -38 -38 -55 -57 -16 -19 -4 -10 28 20 31 30 57
56 57 57 0 6 -6 2 -30 -20z"/>
<path d="M1885 4282 c60 -63 89 -85 44 -34 -31 35 -49 52 -79 77 -14 10 2 -9
35 -43z"/>
<path d="M1512 4275 c-17 -37 -14 -45 4 -12 9 16 14 31 11 33 -2 2 -9 -7 -15
-21z"/>
<path d="M1462 4158 c-18 -39 -30 -73 -28 -75 2 -2 17 29 35 68 18 39 30 73
28 75 -2 2 -18 -29 -35 -68z"/>
<path d="M1190 4040 c-12 -16 -19 -30 -16 -30 2 0 14 14 26 30 12 17 19 30 16
30 -2 0 -14 -13 -26 -30z"/>
<path d="M1940 3950 c0 -5 5 -10 10 -10 6 0 10 5 10 10 0 6 -4 10 -10 10 -5 0
-10 -4 -10 -10z"/>
<path d="M1317 3815 c-24 -50 -20 -58 4 -12 11 22 19 41 17 43 -3 2 -12 -12
-21 -31z"/>
<path d="M1276 3725 c-9 -26 -7 -32 5 -12 6 10 9 21 6 23 -2 3 -7 -2 -11 -11z"/>
<path d="M1347 3682 c-10 -10 -17 -24 -17 -31 0 -7 -4 -10 -9 -6 -5 3 -12 1
-15 -4 -4 -5 2 -8 11 -6 10 2 21 4 26 4 8 1 30 52 24 57 -2 2 -11 -4 -20 -14z"/>
<path d="M1245 3653 c-8 -20 -13 -38 -10 -41 3 -3 5 -3 5 0 0 3 7 22 15 42 8
20 13 36 10 36 -2 0 -12 -16 -20 -37z"/>
<path d="M1275 3600 c-3 -5 -1 -10 4 -10 6 0 11 5 11 10 0 6 -2 10 -4 10 -3 0
-8 -4 -11 -10z"/>
<path d="M1828 3153 c7 -3 16 -2 19 1 4 3 -2 6 -13 5 -11 0 -14 -3 -6 -6z"/>
<path d="M1870 3148 c-20 -9 -22 -12 -8 -15 9 -2 29 3 45 11 23 12 24 15 8 15
-11 0 -31 -5 -45 -11z"/>
<path d="M1771 2896 c-7 -8 -19 -60 -28 -116 -17 -109 -19 -112 -87 -124 -32
-6 -38 -5 -33 8 3 8 9 43 12 78 8 85 -7 57 -29 -52 -15 -76 -16 -90 -3 -130
l15 -45 1 57 c1 45 5 58 19 61 57 16 76 17 82 6 8 -12 50 151 50 194 0 40 10
57 35 57 37 0 53 -10 76 -47 18 -28 22 -51 23 -141 1 -59 5 -113 10 -120 4 -6
17 -12 30 -12 24 0 141 82 150 105 8 22 -1 18 -47 -19 -47 -37 -106 -70 -114
-63 -3 3 -7 52 -10 109 -6 110 -24 164 -65 192 -28 20 -72 21 -87 2z"/>
<path d="M2580 2671 c0 -10 19 -25 25 -20 1 2 -3 10 -11 17 -8 7 -14 8 -14 3z"/>
<path d="M2604 2636 c-10 -8 -23 -13 -29 -12 -5 2 -7 1 -2 -1 11 -7 9 -33 -3
-33 -5 0 -11 1 -13 3 -8 5 -39 -35 -32 -41 4 -4 10 -1 12 6 3 6 15 12 27 12
12 0 31 7 42 16 19 15 19 16 -1 9 -16 -4 -14 0 8 19 30 26 23 45 -9 22z"/>
<path d="M2490 2570 c0 -5 5 -10 10 -10 6 0 10 5 10 10 0 6 -4 10 -10 10 -5 0
-10 -4 -10 -10z"/>
<path d="M2582 2562 c-24 -2 -32 -8 -30 -19 2 -9 9 -18 17 -21 8 -3 11 0 7 7
-4 6 -5 11 -2 11 2 0 13 3 23 7 10 3 15 3 11 -1 -11 -13 23 -44 43 -39 14 4
17 1 14 -16 -2 -14 1 -21 11 -21 8 0 12 5 9 11 -4 6 1 16 11 24 18 13 18 13
-1 12 -15 -2 -19 3 -17 21 2 21 1 22 -14 8 -19 -20 -25 -20 -18 -2 6 16 -17
22 -64 18z"/>
<path d="M1670 2347 l-34 -42 42 40 c23 21 42 40 42 42 0 12 -20 -5 -50 -40z"/>
<path d="M2153 2291 c-1 -18 43 -58 53 -49 4 5 -39 68 -46 68 -3 0 -6 -9 -7
-19z"/>
<path d="M2056 2184 c-10 -25 1 -29 14 -5 6 12 7 21 1 21 -5 0 -12 -7 -15 -16z"/>
<path d="M2111 2164 c0 -11 3 -14 6 -6 3 7 2 16 -1 19 -3 4 -6 -2 -5 -13z"/>
<path d="M5175 2020 c-13 -5 -14 -9 -5 -9 8 0 24 4 35 9 13 5 14 9 5 9 -8 0
-24 -4 -35 -9z"/>
<path d="M460 1921 c0 -6 5 -11 11 -11 5 0 7 -6 3 -12 -6 -10 -5 -10 8 -1 8 7
19 9 23 5 5 -4 5 -2 2 5 -4 6 -1 14 5 16 8 3 6 6 -4 6 -10 1 -18 -4 -18 -10 0
-8 -5 -8 -15 1 -10 9 -15 9 -15 1z"/>
<path d="M873 1915 c0 -18 19 -15 25 3 2 7 -3 12 -10 12 -8 0 -15 -7 -15 -15z"/>
<path d="M1264 1919 c-8 -13 25 -24 37 -12 7 7 3 12 -10 16 -12 3 -24 1 -27
-4z"/>
<path d="M1513 1915 c-3 -9 -3 -18 -1 -21 3 -3 8 4 11 16 6 23 -1 27 -10 5z"/>
<path d="M1606 1918 c-13 -8 -15 -13 -5 -24 14 -17 39 -18 39 -1 0 8 3 8 8 2
4 -6 27 -12 52 -14 25 -2 48 -5 52 -8 5 -2 8 1 8 7 0 6 -12 15 -26 20 -32 13
-37 12 -29 0 3 -5 4 -10 0 -10 -3 0 -14 5 -25 10 -11 6 -28 14 -38 19 -11 5
-25 5 -36 -1z"/>
<path d="M1775 1880 c3 -5 8 -10 11 -10 2 0 4 5 4 10 0 6 -5 10 -11 10 -5 0
-7 -4 -4 -10z"/>
<path d="M2096 1872 c-5 -8 5 -275 10 -270 1 2 7 44 12 93 14 122 2 216 -22
177z"/>
<path d="M2344 1812 c-6 -4 -17 -18 -24 -32 -12 -24 -11 -24 19 4 17 17 31 31
31 33 0 5 -15 3 -26 -5z"/>
<path d="M2060 1760 c0 -5 5 -10 11 -10 5 0 7 5 4 10 -3 6 -8 10 -11 10 -2 0
-4 -4 -4 -10z"/>
<path d="M1963 1718 c-10 -13 -24 -58 -18 -58 10 0 55 49 55 59 0 15 -25 14
-37 -1z"/>
<path d="M2922 1544 c-26 -18 -28 -42 -7 -70 13 -17 13 -16 2 14 -11 31 -10
35 13 52 30 23 24 27 -8 4z"/>
<path d="M3021 1498 c0 -9 -15 -28 -32 -42 -17 -14 -24 -26 -17 -26 23 0 60
46 55 67 -4 15 -5 15 -6 1z"/>
<path d="M2420 1293 c-14 -3 -29 -9 -35 -15 -7 -7 -2 -9 15 -4 14 3 39 6 55 6
23 0 27 3 15 10 -8 5 -17 9 -20 8 -3 0 -16 -3 -30 -5z"/>
<path d="M4190 1254 c0 -10 36 -131 80 -269 25 -81 36 -133 34 -160 l-4 -40
15 30 c19 41 18 72 -4 136 -10 30 -31 88 -45 129 -15 41 -30 82 -35 90 -5 9
-12 30 -15 48 -7 28 -26 55 -26 36z"/>
<path d="M2508 1216 c2 -21 -2 -39 -13 -49 -14 -14 -14 -17 -2 -17 8 0 18 7
21 16 9 22 7 72 -2 78 -4 2 -6 -10 -4 -28z"/>
<path d="M3400 1113 c-20 -7 -50 -34 -50 -45 0 -14 27 -9 53 12 37 29 52 25
105 -27 48 -47 49 -50 66 -148 10 -55 18 -106 19 -114 4 -33 22 -7 19 27 -15
209 -105 334 -212 295z"/>
<path d="M10175 1030 c-4 -17 -5 -34 -2 -36 2 -3 7 10 11 27 8 42 0 50 -9 9z"/>
<path d="M3449 1036 c8 -9 28 -27 45 -38 l31 -22 -25 28 c-14 15 -34 33 -45
39 -18 9 -19 9 -6 -7z"/>
<path d="M5580 906 c0 -2 7 -7 16 -10 8 -3 12 -2 9 4 -6 10 -25 14 -25 6z"/>
<path d="M3410 828 c23 -68 96 -188 114 -188 13 0 4 18 -46 96 -85 131 -79
123 -68 92z"/>
<path d="M5530 789 c0 -5 5 -7 10 -4 6 3 10 8 10 11 0 2 -4 4 -10 4 -5 0 -10
-5 -10 -11z"/>
<path d="M3510 779 c0 -19 34 -69 47 -69 21 0 15 23 -12 53 -28 29 -35 33 -35
16z"/>
<path d="M4290 716 c0 -8 5 -18 11 -22 6 -3 21 -27 32 -53 15 -33 22 -41 25
-28 2 10 -7 39 -20 65 -24 46 -48 66 -48 38z"/>
<path d="M4634 628 c-12 -5 -26 -20 -32 -32 -8 -17 -5 -25 15 -39 22 -17 26
-17 48 -3 37 24 61 64 46 79 -8 8 -11 6 -11 -9 0 -11 -13 -32 -28 -47 l-29
-27 -19 21 c-18 20 -18 21 1 35 10 8 24 14 31 14 7 0 16 5 19 10 8 13 -14 12
-41 -2z"/>
<path d="M8342 585 c0 -16 2 -22 5 -12 2 9 2 23 0 30 -3 6 -5 -1 -5 -18z"/>
<path d="M8230 561 c0 -24 39 -39 51 -20 13 21 5 34 -24 37 -21 3 -27 -1 -27
-17z"/>
<path d="M8170 505 c0 -7 58 -35 72 -35 7 1 -3 9 -22 20 -35 19 -50 24 -50 15z"/>
<path d="M8268 463 c7 -3 16 -2 19 1 4 3 -2 6 -13 5 -11 0 -14 -3 -6 -6z"/>
<path d="M4578 354 c5 -42 -11 -64 -49 -64 -15 0 -31 -5 -35 -12 -12 -19 69
-1 83 19 14 19 18 79 5 87 -4 2 -6 -11 -4 -30z"/>
<path d="M8030 375 c0 -9 5 -15 11 -13 6 2 11 8 11 13 0 5 -5 11 -11 13 -6 2
-11 -4 -11 -13z"/>
<path d="M9955 181 c14 -38 25 -87 25 -109 0 -44 8 -72 20 -72 4 0 6 21 3 48
l-4 47 22 -25 c12 -14 30 -35 40 -48 10 -13 25 -22 34 -20 11 2 -1 24 -46 83
-34 44 -70 99 -82 123 -32 65 -39 50 -12 -27z"/>
<path d="M4236 182 c-2 -4 -1 -14 3 -21 6 -9 10 -7 14 8 5 20 -7 29 -17 13z"/>
<path d="M3969 74 c-18 -19 -27 -32 -18 -29 14 5 65 65 56 65 -2 0 -19 -16
-38 -36z"/>
<path d="M9540 10 c0 -5 5 -10 10 -10 6 0 10 5 10 10 0 6 -4 10 -10 10 -5 0
-10 -4 -10 -10z"/>
</g>
</svg>
